<svg viewBox="0 0 48.8 43.854">
  <g id="adventist-symbol--white" transform="translate(-1164 -2197.146)">
    <path fill-rule="evenodd" fill='currentColor' d="M55.364,87.99c0,.178.2.179.241,0a7.064,7.064,0,0,1,1.329-3.05h-1.45a.12.12,0,0,0-.12.12V87.99Zm10.423-18.3c.016,1.906-.531,3.544-4.006,7.022L59.032,79.46A19.4,19.4,0,0,0,55.992,83h2.715l.321-.321,3.944-3.951c3.284-3.287,3.742-6.765,3.041-9.033-.06-.193-.227-.205-.225,0ZM62.326,81.316l-3.294,3.3c-1.994,2-3.668,3.716-3.668,5.6l0,.524c0,.142.177.165.231.016.616-1.684,2.673-3.481,6.446-2.844,0,0,16.437,2.843,16.575,2.855a.157.157,0,0,0,.137-.267c-.062-.074-7.65-7.669-7.65-7.669ZM50.436,84.94a.12.12,0,0,1-.12-.12v-1.7a.12.12,0,0,1,.12-.12h2.877a.12.12,0,0,0,.12-.12c-.008-1.529-1.159-2.568-5.773-1.764L37.7,82.828s-7.588,7.595-7.65,7.669a.156.156,0,0,0,.136.267c.138-.012,16.575-2.855,16.575-2.855,3.773-.637,5.83,1.161,6.446,2.844.054.148.231.126.231-.016V85.059a.12.12,0,0,0-.12-.12H50.436ZM45.843,61.146c-3.284,3.287-3.742,6.765-3.041,9.033.059.193.226.205.224,0-.016-1.906.532-3.543,4.007-7.022l7.492-7.5c1.994-2,3.668-3.716,3.668-5.6V47.134c0-.179-.2-.179-.241,0-.493,2.394-1.449,3.339-3.422,5.313l-8.686,8.7ZM58.2,52.266c0-.178-.2-.179-.241,0-.493,2.394-1.447,3.353-3.419,5.328l-7.869,7.868c-3.818,3.822-4.479,7.521-2.537,9.9.13.159.269.063.185-.128-1.284-2.908,1.795-5.991,3.261-7.458l6.953-6.959c1.994-2,3.668-3.716,3.668-5.6V52.266ZM46.887,70.4c-3.819,3.822-2.063,7.514.165,8.53.2.089.273-.07.123-.2-1.786-1.549-1.244-4.155,1-6.4l6.347-6.353c1.994-2,3.668-3.715,3.668-5.6V57.45c0-.178-.2-.179-.241,0-.493,2.394-1.448,3.334-3.42,5.309Zm8.47,12.454c0,.178.2.179.241,0,.493-2.394,1.448-3.353,3.42-5.328l3.126-3.122c3.818-3.822,4.479-7.521,2.537-9.9-.13-.159-.269-.064-.184.128,1.284,2.908-1.8,5.991-3.261,7.458l-2.21,2.212c-1.994,2-3.668,3.715-3.668,5.6v2.953Zm3.669-10.493c-1.973,1.974-2.928,2.915-3.42,5.309-.037.179-.241.179-.241,0V74.741c0-1.88,1.674-3.6,3.668-5.6l1.6-1.605c2.246-2.249,2.789-4.853,1-6.4-.149-.129-.072-.288.124-.2,2.227,1.016,3.983,4.708.164,8.53l-2.9,2.9Zm18.585,13c.164,0,.261-.091.261-.224,0-.147-.082-.211-.264-.211h-.154v.435h.157Zm-.4-.635h.4c.343,0,.5.135.5.406a.369.369,0,0,1-.245.358l.365.61h-.27l-.315-.544h-.195V86.1h-.239V84.728Zm1.405.686a.963.963,0,0,0-.975-.988.947.947,0,0,0-.978.988.977.977,0,1,0,1.953,0Zm-2.129,0a1.115,1.115,0,0,1,1.154-1.154A1.134,1.134,0,0,1,78.8,85.413a1.154,1.154,0,1,1-2.308,0Z" transform="translate(1134 2150.146)"/>
  </g>
</svg>
