<svg xmlns="http://www.w3.org/2000/svg" viewBox="0 0 21.335 21.067">
  <defs>
    <style>
      .cls-1 {
        fill: #7783db;
      }
    </style>
  </defs>
  <g id="Group_88" data-name="Group 88" transform="translate(0.033 -0.082)">
    <g id="Group_65" data-name="Group 65" transform="translate(0.132 2.461)">
      <g id="Group_64" data-name="Group 64">
        <path id="Path_543" data-name="Path 543" class="cls-1" d="M1.4,21.724c.012,3.808.115,7.617.208,11.414.023.912.046,1.823.069,2.747.012.646-.173,1.685.254,2.227.358.473,1.027.5,1.57.565.981.115,1.962.208,2.943.289,1.893.162,3.785.254,5.69.312a38.586,38.586,0,0,0,5.54,0c.866-.1,1.708-.346,2.574-.473.45-.069.889-.035,1.339-.069a1.028,1.028,0,0,0,.692-.254c.439-.462.254-1.4.254-1.962v-3c0-2.147.012-4.3,0-6.451-.012-1.073-.012-2.158-.023-3.231a12.393,12.393,0,0,0-.2-2.77c-.127-.565-1.2-.45-1.039.127a19.13,19.13,0,0,1,.254,5.078c0,1.7.012,3.381.023,5.078s.023,3.381.035,5.078a5.381,5.381,0,0,1,0,1.293c-.092.346-.358.231-.669.254a15.985,15.985,0,0,0-2.447.439,23.231,23.231,0,0,1-5.147.208c-1.673-.046-3.335-.15-5-.277s-3.324-.3-4.986-.5a1.789,1.789,0,0,1-.554-.081c-.219-.15-.185-.4-.185-.623-.012-.381-.023-.762-.023-1.143-.023-.912-.046-1.823-.069-2.747-.092-3.808-.185-7.628-.358-11.437-.012-.427-.75-.519-.75-.092Z" transform="translate(-1.4 -20.696)"/>
      </g>
    </g>
    <g id="Group_67" data-name="Group 67" transform="translate(-0.033 2.587)">
      <g id="Group_66" data-name="Group 66">
        <path id="Path_544" data-name="Path 544" class="cls-1" d="M.155,22.761a3.069,3.069,0,0,0,1.027,0c.427,0,.854.046,1.281.069.912.035,1.812.058,2.724.069,1.823.023,3.635.023,5.459,0,1.789-.012,3.589-.046,5.378-.069.831-.012,1.673-.023,2.5-.046a4.381,4.381,0,0,0,2.32-.3.249.249,0,0,0-.023-.427,4.259,4.259,0,0,0-2.285-.219c-.9.012-1.812.035-2.712.046-1.858.035-3.716.069-5.574.092C8.372,22,6.48,22,4.6,21.976c-.912-.012-1.823-.035-2.735-.035-.577,0-1.57-.092-1.881.5-.058.127.058.277.173.323Z" transform="translate(0.033 -21.79)"/>
      </g>
    </g>
    <g id="Group_69" data-name="Group 69" transform="translate(0.747 7.093)">
      <g id="Group_68" data-name="Group 68">
        <path id="Path_545" data-name="Path 545" class="cls-1" d="M6.919,61.791c.773.023,1.523-.115,2.3-.162.854-.046,1.7-.035,2.551-.012,1.72.046,3.428.081,5.147.127s3.439.081,5.159.115c.842.012,1.685.035,2.527.046l1.373.035c.369.012.658.069.958-.185.115-.1.185-.3.046-.415-.565-.485-1.581-.265-2.285-.277-.877-.012-1.754-.035-2.643-.046-1.8-.035-3.589-.058-5.39-.092-1.743-.023-3.485-.058-5.228-.069-1.477-.012-3.324-.162-4.628.623-.162.081-.046.312.115.312Z" transform="translate(-6.726 -60.837)"/>
      </g>
    </g>
    <g id="Group_71" data-name="Group 71" transform="translate(0.463 10.407)">
      <g id="Group_70" data-name="Group 70">
        <path id="Path_546" data-name="Path 546" class="cls-1" d="M4.57,90.377c3.335.277,6.74.173,10.087.138,1.65-.012,3.312-.035,4.963-.069,1.708-.035,3.428-.012,5.124-.173a.353.353,0,0,0-.035-.7c-1.627-.058-3.278.046-4.9.081-1.743.035-3.485.058-5.24.069-3.335.023-6.694-.115-10.029.058a.3.3,0,0,0,.035.6Z" transform="translate(-4.266 -89.552)"/>
      </g>
    </g>
    <g id="Group_73" data-name="Group 73" transform="translate(0.967 13.471)">
      <g id="Group_72" data-name="Group 72">
        <path id="Path_547" data-name="Path 547" class="cls-1" d="M8.8,116.873c.773-.023,1.546.012,2.32-.023s1.535-.069,2.3-.092c1.616-.058,3.243-.081,4.859-.092,1.535-.012,3.058.012,4.593.069.762.023,1.535.046,2.3.081a10.088,10.088,0,0,0,2.285.023c.3-.058.392-.45.058-.554a8.719,8.719,0,0,0-2.262-.15c-.808-.023-1.616-.035-2.412-.035-1.523,0-3.047.012-4.57.023q-2.354.035-4.709.138l-2.3.1c-.842.046-1.662.173-2.5.254-.208.023-.127.265.046.254Z" transform="translate(-8.629 -116.1)"/>
      </g>
    </g>
    <g id="Group_75" data-name="Group 75" transform="translate(0.548 16.568)">
      <g id="Group_74" data-name="Group 74">
        <path id="Path_548" data-name="Path 548" class="cls-1" d="M5.372,143.886c3.266-.542,6.463.323,9.729.185,1.72-.069,3.416-.312,5.147-.265.819.023,1.627.081,2.447.162a10.659,10.659,0,0,0,2.551.231.341.341,0,0,0,.069-.669,8.494,8.494,0,0,0-2.539-.358q-1.281-.121-2.562-.138c-1.731-.023-3.439.208-5.159.3-3.243.173-6.728-1.016-9.879.046-.346.1-.115.565.2.508Z" transform="translate(-5.003 -142.932)"/>
      </g>
    </g>
    <g id="Group_77" data-name="Group 77" transform="translate(4.613 7.431)">
      <g id="Group_76" data-name="Group 76">
        <path id="Path_549" data-name="Path 549" class="cls-1" d="M40.234,64.088a20.978,20.978,0,0,1,.2,6.128,29.227,29.227,0,0,0,.012,5.943c.058.45.923.369.819-.1a22.129,22.129,0,0,1-.012-6.174,16.74,16.74,0,0,0-.323-5.874c-.1-.358-.785-.323-.692.081Z" transform="translate(-40.226 -63.761)"/>
      </g>
    </g>
    <g id="Group_79" data-name="Group 79" transform="translate(8.811 7.697)">
      <g id="Group_78" data-name="Group 78">
        <path id="Path_550" data-name="Path 550" class="cls-1" d="M77.165,66.093c-.358.242-.323.577-.358.981-.046.531-.092,1.062-.115,1.593-.069,1.1-.092,2.2-.092,3.312,0,1.062.023,2.123.069,3.2a10.09,10.09,0,0,0,.289,3.012c.115.312.646.208.7-.081a5.584,5.584,0,0,0-.046-1.454c-.046-.577-.081-1.154-.1-1.72q-.069-1.541-.069-3.081c0-1.027.035-2.054.081-3.081.023-.531.046-1.062.081-1.593.023-.4.115-.739-.2-1.039a.185.185,0,0,0-.242-.046Z" transform="translate(-76.6 -66.066)"/>
      </g>
    </g>
    <g id="Group_81" data-name="Group 81" transform="translate(12.669 7.94)">
      <g id="Group_80" data-name="Group 80">
        <path id="Path_551" data-name="Path 551" class="cls-1" d="M110.484,68.3a9.886,9.886,0,0,0-.346,2.978c-.069,1.05-.092,2.112-.1,3.174s-.012,2.112,0,3.174c.012.531.023,1.062.046,1.581a5.55,5.55,0,0,0,.115,1.454.4.4,0,0,0,.773-.012,7.254,7.254,0,0,0-.023-1.581c-.023-.531-.035-1.062-.046-1.581-.023-1.016-.023-2.043-.023-3.058s.046-2.043.058-3.058a11.959,11.959,0,0,0,0-3.012c-.035-.208-.381-.265-.45-.058Z" transform="translate(-110.025 -68.174)"/>
      </g>
    </g>
    <g id="Group_83" data-name="Group 83" transform="translate(16.082 8.172)">
      <g id="Group_82" data-name="Group 82">
        <path id="Path_552" data-name="Path 552" class="cls-1" d="M139.892,70.258a9.212,9.212,0,0,0-.231,2.978c-.012,1.027.012,2.066.012,3.093s0,2.066-.012,3.093a27.65,27.65,0,0,0-.012,3.093c.046.439.808.415.877-.012a22.874,22.874,0,0,0,.092-3.208c.012-1.027.012-2.066,0-3.093-.012-.993-.023-1.985-.069-2.978a8.923,8.923,0,0,0-.392-2.978c-.046-.081-.231-.081-.265.012Z" transform="translate(-139.604 -70.187)"/>
      </g>
    </g>
    <g id="Group_85" data-name="Group 85" transform="translate(3.214 0.199)">
      <g id="Group_84" data-name="Group 84">
        <path id="Path_553" data-name="Path 553" class="cls-1" d="M28.735,3.856a3.93,3.93,0,0,1,.138-1.027,4.238,4.238,0,0,1,.1-.5,1.318,1.318,0,0,1,.1-.3c.046-.219.1-.254.15-.092.173.2.15.762.185,1a10.8,10.8,0,0,0,.2,1.223c.127.485.935.415.9-.115a10.36,10.36,0,0,0-.381-2.135A1.042,1.042,0,0,0,29.15,1.1c-.577.012-.808.542-.935,1.016a3.251,3.251,0,0,0-.115.808,3.11,3.11,0,0,0,.312.958c.046.185.358.173.323-.023Z" transform="translate(-28.1 -1.098)"/>
      </g>
    </g>
    <g id="Group_87" data-name="Group 87" transform="translate(14.591 0.082)">
      <g id="Group_86" data-name="Group 86" transform="translate(0 0)">
        <path id="Path_554" data-name="Path 554" class="cls-1" d="M127.285,2.853c.046-.358.138-.739.208-1.085.046-.242.358-1.385.589-.75.254.716.012,1.581.381,2.262a.423.423,0,0,0,.773-.092,2.8,2.8,0,0,0-.081-1.154A7.822,7.822,0,0,0,128.97,1a1.165,1.165,0,0,0-1.027-.912c-.531-.035-.831.358-1,.819a4.069,4.069,0,0,0-.242.981,2.636,2.636,0,0,0,.115.993c.046.2.439.219.473-.023Z" transform="translate(-126.683 -0.082)"/>
      </g>
    </g>
  </g>
</svg>
