<svg xmlns="http://www.w3.org/2000/svg" viewBox="0 0 50 50">
  <title>calendar</title>
  <g>
    <g>
      <path d="M6.8,12.6c0,6.6.2,13.3.3,19.8.1,1.6.1,3.2.2,4.8s-.3,2.9.4,3.9,1.8.8,2.7.9l5.1.5q5,.4,9.9.6a76.9,76.9,0,0,0,9.6,0l4.5-.8a17.9,17.9,0,0,1,2.3-.2,1.4,1.4,0,0,0,1.2-.4c.8-.8.4-2.4.4-3.4V33.1c0-3.7.1-7.5,0-11.2V16.3a19.5,19.5,0,0,0-.4-4.8c-.2-1-2-.8-1.8.2a32.6,32.6,0,0,1,.5,8.8v8.8c0,3,.1,5.9.1,8.8a8.9,8.9,0,0,1,0,2.3c-.2.6-.6.4-1.2.4a31,31,0,0,0-4.2.8,44.6,44.6,0,0,1-8.9.4l-8.7-.5-8.7-.9H9.2c-.4-.3-.3-.7-.3-1.1a13.4,13.4,0,0,1-.1-2c0-1.6-.1-3.2-.1-4.8-.2-6.6-.3-13.2-.6-19.8,0-.7-1.3-.9-1.3-.2Z" style="fill: #7783db"/>
      <path d="M6.8,12.8H38.7a7.9,7.9,0,0,0,4-.5c.2-.2.3-.4.1-.6v-.2a7.8,7.8,0,0,0-4-.3H34l-9.7.2H9.8c-1,0-2.7-.1-3.3.9s.1.5.3.6Z" style="fill: #7783db"/>
      <path d="M8.2,20.5c1.3.1,2.6-.2,4-.2h4.4l8.9.3,9,.2h6.7c.7,0,1.2.1,1.7-.3a.5.5,0,0,0,.1-.7c-1-.9-2.8-.5-4-.5H34.4L25.1,19H16c-2.5,0-5.7-.3-8,1.1-.3.1-.1.5.2.5Z" style="fill: #7783db"/>
      <path d="M7.9,26.1a170.3,170.3,0,0,0,17.5.2H34c2.9-.1,5.9,0,8.9-.3a.8.8,0,0,0,.5-.7.6.6,0,0,0-.6-.5c-2.8-.1-5.7.1-8.5.1H25.2c-5.8.1-11.6-.2-17.4.1a.6.6,0,1,0,.1,1.1Z" style="fill: #7783db"/>
      <path d="M8.5,31.3h4.1l3.9-.2,8.5-.2,7.9.2h4a13.4,13.4,0,0,0,4,0c.5-.1.7-.7.1-.9a12.9,12.9,0,0,0-3.9-.3H25l-8.2.2-4,.2-4.3.4c-.4.1-.3.5,0,.5Z" style="fill: #7783db"/>
      <path d="M8.1,37c5.7-1,11.3.5,16.9.3,3-.1,5.9-.5,8.9-.5l4.3.3a16,16,0,0,0,4.4.4.6.6,0,0,0,.6-.6c-.1-.3-.2-.5-.5-.5a13.1,13.1,0,0,0-4.4-.7l-4.4-.2c-3,0-6,.4-9,.5-5.6.3-11.6-1.7-17.1.1-.6.2-.2,1,.4.9Z" style="fill: #7783db"/>
      <path d="M14.6,20a38.4,38.4,0,0,1,.3,10.7,59.1,59.1,0,0,0,0,10.3c.1.8,1.6.6,1.5-.2a34.9,34.9,0,0,1-.1-10.7,26.9,26.9,0,0,0-.5-10.2c-.2-.6-1.4-.5-1.2.2Z" style="fill: #7783db"/>
      <path d="M22.8,20c-.6.4-.5,1-.6,1.7a24.6,24.6,0,0,0-.2,2.8c-.1,1.9-.2,3.8-.2,5.7s.1,3.7.2,5.5a15.7,15.7,0,0,0,.5,5.3c.2.5,1.1.3,1.2-.2a10.5,10.5,0,0,0-.1-2.5c-.1-1-.2-2-.2-3s-.1-3.5-.1-5.3.1-3.6.1-5.4.1-1.8.2-2.7.2-1.3-.4-1.8-.2-.2-.4-.1Z" style="fill: #7783db"/>
      <path d="M29.3,20.6a22.2,22.2,0,0,0-.6,5.1c-.1,1.9-.1,3.7-.2,5.5v5.6a24.4,24.4,0,0,1,.1,2.7,21.1,21.1,0,0,0,.2,2.5.7.7,0,0,0,.9.5,1.2,1.2,0,0,0,.5-.5,12.2,12.2,0,0,0-.1-2.7,25.3,25.3,0,0,0-.1-2.8V31.2c0-1.8.1-3.5.1-5.3a22.6,22.6,0,0,0,0-5.2c-.1-.4-.7-.5-.8-.1Z" style="fill: #7783db"/>
      <path d="M34.9,20.9a18,18,0,0,0-.4,5.2c0,1.7.1,3.5.1,5.3s0,3.6-.1,5.4a46.8,46.8,0,0,0,0,5.3.8.8,0,0,0,1.5,0,33.7,33.7,0,0,0,.2-5.5V31.2c0-1.7,0-3.4-.1-5.2a14.6,14.6,0,0,0-.7-5.1A.3.3,0,0,0,34.9,20.9Z" style="fill: #7783db"/>
      <path d="M13.2,11.7a5.7,5.7,0,0,1,.3-1.8c0-.3.1-.5.1-.8s.1-.4.2-.5.2-.5.3-.2.2,1.3.3,1.7l.3,2.1c.3.9,1.7.8,1.6-.2a17.2,17.2,0,0,0-.7-3.7,1.7,1.7,0,0,0-1.7-1.4c-1,.1-1.4,1-1.6,1.8a6.8,6.8,0,0,0-.2,1.4,5.8,5.8,0,0,0,.6,1.7c0,.3.6.3.5-.1Z" style="fill: #7783db"/>
      <path d="M32.9,11.5a11.6,11.6,0,0,1,.4-1.8c0-.5.6-2.4,1-1.3s0,2.7.6,3.9a.8.8,0,0,0,1,.3,1,1,0,0,0,.4-.5,4.7,4.7,0,0,0-.2-2,5.7,5.7,0,0,0-.3-1.8A2.1,2.1,0,0,0,34,6.7c-.9,0-1.4.7-1.7,1.5a8.5,8.5,0,0,0-.4,1.7,3.5,3.5,0,0,0,.2,1.7c.1.3.8.4.8-.1Z" style="fill: #7783db"/>
    </g>
    <rect width="50" height="50" style="fill: none"/>
  </g>
</svg>
