<svg xmlns="http://www.w3.org/2000/svg" viewBox="0 0 120.5 137.4">
  <title>chair</title>
  <g>
    <g>
      <path d="M18.8,114.3a28.3,28.3,0,0,1,2.4-17.2l-9.8-.4a122.1,122.1,0,0,1,1.9-20.9A25.4,25.4,0,0,1,16,67.2c5.2-9.1,17.5-10.1,26.8-14.8,11.3-5.6,18.4-17,26.1-27a21.9,21.9,0,0,1,6.3-6.2c6.2-3.6,14.2-1.1,20.6,2.1s12,7.3,12.2,13.7c.1,3.3-1.5,6.4-2.9,9.4C94.4,67.6,92.1,93.6,90,119c-3.7.5-5-4.8-4.3-8.4s1.2-8.6-2.2-10.1a8.5,8.5,0,0,0-3.2-.4l-39.4.3a8.3,8.3,0,0,0-2.7.3c-4.8,1.8-2,9.5-4.8,13.8a5.7,5.7,0,0,1-10.4-4" style="fill: #bad15a"/>
      <g style="opacity: 0.8">
        <path d="M13.2,107.3a51.3,51.3,0,0,1-6.9,4.9,31.2,31.2,0,0,0-.9,4.4,34.3,34.3,0,0,1,.6-9.1,44.3,44.3,0,0,1,5-15.3l9.7,16.1L11,107,.2,105.3l.9-8.7a62.2,62.2,0,0,1,3-14,68.1,68.1,0,0,0-.9,9.5c-.1,1.1-.1,2.1-.1,3.2v1.4l-.2,8,8.2.3,3.7.3H14l6.2-1.1h.7L14.7,94a32.3,32.3,0,0,0-2.5,6.5A32.3,32.3,0,0,1,14.7,94l6.2,10.3h0L14.8,94a34.2,34.2,0,0,0-1.6,13.3" style="fill: #d7e4a4"/>
        <path d="M115.3,49v-.3l-.3,2-.5,1.4-.2.7a4.1,4.1,0,0,0-.2.7l-.5,1.9a23.4,23.4,0,0,0-.9,3.8,68.6,68.6,0,0,0-1.2,7.5c-.4,3-.8,6-1.3,9.1s-.5,3.2-.7,4.8l-.9,5.3c-.3,2.4-.7,4.9-1,7.3,0-2.5.1-5.1.2-7.5V80.3c1.1-5.6,1.8-10.7,2.7-15.6.2-1.2.4-2.5.7-3.7l.9-3.6c.3-1.2.7-2.3,1-3.5l.3-1,.6-1.3,1.1-2.6" style="fill: #d7e4a4"/>
        <path d="M112.2,93.4c-1,12.9-1.6,27.9-2.4,43.2l-.8-1.3c.3-4,.5-8.3.7-12.6s.5-8.5.9-12.7c.2-2.3.4-4.5.7-6.8l-.3,1.5c.3-3.8.8-7.5,1.2-11.3" style="fill: #c5d877"/>
        <polyline points="108.7 121.9 108.2 134.9 107.9 136.2 108.7 121.9" style="fill: #c5d877"/>
        <path d="M98.7,42.7l.7-.9a8.3,8.3,0,0,1-.8,1.2v-.3" style="fill: #c5d877"/>
        <path d="M78.7,87.5l.6-.4-.6.4" style="fill: #c5d877"/>
        <polyline points="79.3 87.1 79.3 87 79.3 87.1" style="fill: #c5d877"/>
        <path d="M90,126.7l4.9.8-4.9-.8" style="fill: #c5d877"/>
        <polyline points="80.2 95.4 80.4 95.5 80.2 95.4" style="fill: #c5d877"/>
        <path d="M45.3,29.4A18.6,18.6,0,0,1,42,31.3a18.6,18.6,0,0,0,3.3-1.9" style="fill: #c5d877"/>
        <path d="M99.4,41.8l1.8-2.2-1.8,2.2" style="fill: #c5d877"/>
        <path d="M100.4,131.1c.4.3-.1.7-.7,1.1s1-.6.9-.9l-.2-.2" style="fill: #c5d877"/>
        <path d="M79.3,113.6h.1v.3l.4.4.6.9,1.4,1.7,2.7,3.5,2.8,3.6,1.4,1.8.3.5c.1.1.3.4.3.3h-.2l-.9-1.2-1.8-2.4-3.7-4.7L81,115.8l-.9-1.2-.4-.6-.4-.4" style="fill: #c5d877"/>
        <path d="M94.5,135.9c-1.5,0-1.7-.1-1.4-.2l.2-.2-.2.2.2-.2h-.1c-.5.2-.4.4,1.3.5" style="fill: #c5d877"/>
        <path d="M90.8,128.9l6.3.9c1.8.4,3,.8,3.3,1.3s-.1.7-.7,1.1,1-.6.9-.9-.1.7-.5,1a4.5,4.5,0,0,1-1.3,1c-1.1.7-2.4,1.2-3.6,1.8s-1.8,1-1.9,1.4.4.7,2.2.9l.8-.5a6.1,6.1,0,0,1-3.1-.5c-.2-.2.1-.5.9-.8h-1l.2-.2.2-.2.4-.3-.4.2-.3.2c.1-.3.5-.5.8-.8l1.6-.8a25.5,25.5,0,0,0,3.3-1.7,15,15,0,0,1-2.4,1.8,18.4,18.4,0,0,0,3.1-2l-.7.2c.8-.7,1.4-1.5.9-2.3s-1.3-.5-3-.6-3.9-.2-6-.3m8.8,3,.5-.2-.5.2" style="fill: #c5d877"/>
        <path d="M100.6,131.3c.1.3-.3.6-.9.9s1-.6.9-.9" style="fill: #bbd25f"/>
        <path d="M93.3,135.5l-.2.2.2-.2" style="fill: #bbd25f"/>
        <path d="M70.8,113.5l2,.2h.6l.3-.2.5-.3.3-.2h.3l2.4.7,1.9.4h.3c.1.1.2.2.2.3l.8,1,1.6,2.1,6.6,8.6.8,1.1.2.3h1.8l2.6.3,2.3.4,1,.2.9.2.5.2.5.3.6.5c-.2-.3-1.3-.5-3-.6s-3.9-.2-6-.3H90l-1-1.4-2-2.6-3.8-5.2L81.3,117l-1-1.3-.4-.6c-.2-.2-.4-.5-.4-.4l-2.2-.5-2.1-.8-.5-.2-.5.3-.5.3-.3.2h-.2l-2.4-.5" style="fill: #c5d877"/>
        <path d="M93.9,135l-.4.2-.3.2h.1l.2-.2.4-.3" style="fill: #c5d877"/>
        <path d="M93.9,135l-.4.2-.3.2.3-.2.4-.2" style="fill: #bbd25f"/>
        <polyline points="69.9 113.4 71.6 113.4 72.8 113.7 70.8 113.5 69.9 113.4" style="fill: #c5d877"/>
        <polyline points="71.2 113.4 71.6 113.4 71.2 113.4" style="fill: #c5d877"/>
        <path d="M72.3,113.5h1.2l.9-.6h.5l.5.2a13.4,13.4,0,0,0,3.9.7,14.1,14.1,0,0,1-4.1-.7h-.5c-.1-.1-.3.1-.4.2l-.9.6H72.3" style="fill: #c5d877"/>
        <path d="M93.3,135.5l-.2.2.2-.2" style="fill: #bbd25f"/>
        <polyline points="71.2 113.4 72.3 113.5 71.2 113.4" style="fill: #c5d877"/>
        <path d="M71.6,113.4h1.8l.9-.6c.1-.1.3-.3.4-.2h.5l2,.8-2.4-.7h-.3l-.3.2-.5.3-.3.2h0l.3-.2.5-.3.3-.2h.3l2.4.7-2.4-.7h-.3l-.3.2-.5.3-.3.2h-.6l-1.2-.3" style="fill: #c5d877"/>
        <polyline points="71.2 113.4 72.3 113.5 71.6 113.4 71.2 113.4" style="fill: #bbd25f"/>
        <path d="M72.3,113.5h1.1l.9-.6c.1-.1.3-.3.4-.2h0c-.1-.1-.3.1-.4.2l-.9.6H72.3" style="fill: #bbd25f"/>
        <path d="M72.8,113.7h.6l.3-.2.5-.3.3-.2h.3l2.4.7-2.4-.7h-.3l-.3.2-.5.3-.3.2h-.6" style="fill: #bbd25f"/>
        <path d="M75.2,112.9a14.1,14.1,0,0,0,4.1.7l.4.4.4.6.9,1.2,1.8,2.4-2.7-3.4-.6-.9H78.3a15.7,15.7,0,0,1-3.1-.8" style="fill: #c5d877"/>
        <path d="M79.3,113.6l.4.4.4.6.9,1.2,1.8,2.4L81,115.8l-.9-1.2-.4-.6-.4-.4" style="fill: #bbd25f"/>
        <path d="M75.2,112.9a14.1,14.1,0,0,0,4.1.7,14.1,14.1,0,0,1-4.1-.7" style="fill: #bbd25f"/>
        <path d="M75.2,112.9a15.7,15.7,0,0,0,3.1.8h1.2l.6.9,2.7,3.4,6.4,8.5-6.3-8.1-3-4-.4-.5h-.7l-.9-.2h-.7l-2-.8" style="fill: #c5d877"/>
        <path d="M75.2,112.9a15.7,15.7,0,0,0,3.1.8h1.2l.6.9,2.7,3.4-2.7-3.4-.6-.9H78.3a15.7,15.7,0,0,1-3.1-.8" style="fill: #bbd25f"/>
        <path d="M100.1,131.7l-.5.2.5-.2" style="fill: #bbd25f"/>
        <path d="M99.6,131.9l-.7.2a15,15,0,0,1-2.4,1.8,18.4,18.4,0,0,0,3.1-2" style="fill: #c5d877"/>
        <polyline points="99.6 131.9 98.9 132.1 99.6 131.9" style="fill: #bbd25f"/>
        <path d="M98.9,132.1a15,15,0,0,1-2.4,1.8,15,15,0,0,0,2.4-1.8" style="fill: #bbd25f"/>
        <path d="M98.2,128.8c1.1.3,1.6.7,1.5,1h.1l-.6-.5-.5-.3-.5-.2" style="fill: #c5d877"/>
        <path d="M77.2,113.7h.7l.9.2h.7l.4.5,3,3.9,6.3,8.3.4.5h2.2l2.4.3,2.2.4.9.2.9.2-.9-.2-1-.2L94,128l-2.6-.3H89.6l-.2-.3-.8-1.1L82,117.5l-1.6-2.1-.8-1c0-.1-.1-.2-.2-.3h-.3l-1.9-.4" style="fill: #c5d877"/>
        <path d="M77.2,113.7h0" style="fill: #bbd25f"/>
        <path d="M77.2,113.7h0" style="fill: #bad25b"/>
        <path d="M85.5,104.7q.6-1.4,1.2-3c-.4,1.4-.8,2.6-1.2,3.8v-.8" style="fill: #c5d877"/>
        <path d="M85.3,102l1.1-1,.7-.9-.6,1.1a25.1,25.1,0,0,1-1.1,2.3V102" style="fill: #c5d877"/>
        <path d="M83,94.7c.4-3.1.8-5.8,2-8l-1,4.4v-.3L83,94.7" style="fill: #c5d877"/>
        <polyline points="83 94.7 84.1 90.8 84 91.1 83 94.7" style="fill: #c5d877"/>
        <polyline points="83 94.7 84.1 90.8 83 94.7" style="fill: #bbd25f"/>
        <polyline points="85.4 100.7 85.8 100.1 85.9 100 85.9 100.1 85.3 102 85.4 100.7" style="fill: #c5d877"/>
        <path d="M82,103.3a7.8,7.8,0,0,0,.4,2.1,7.8,7.8,0,0,1-.4-2.1" style="fill: #c5d877"/>
        <path d="M26.5,113.3l-.8-.9a3.2,3.2,0,0,1-1-1.7,4.5,4.5,0,0,0,1.6,4.9,5.1,5.1,0,0,0,6.3-.7,3.5,3.5,0,0,1-1.4.6,4.9,4.9,0,0,0,2.4-2.7,27.9,27.9,0,0,0,1.1-3.5c.2-1.1.4-2.1.7-3.2a11.7,11.7,0,0,1,1.2-3.1c-1.1,1.2-1.4,2.9-1.8,4.7s-.5,1.9-.7,2.8a16.9,16.9,0,0,1-1.2,2.8,4.3,4.3,0,0,1-3.9,1.9,2.9,2.9,0,0,1-2.5-1.9" style="fill: #dee8b4"/>
        <polyline points="44 100.1 45.7 100.1 44 100.1" style="fill: #c5d877"/>
        <path d="M32.6,114.9l.8-.9.5-1.1-.5,1.1-.8.9" style="fill: #c5d877"/>
        <polyline points="41.3 99.8 44 100.1 41.3 99.8" style="fill: #c5d877"/>
        <path d="M83.6,108.4a8.8,8.8,0,0,0,.7,2.3,11.8,11.8,0,0,0,1.6,2.9,9.1,9.1,0,0,1-2.2-4.9v-.3" style="fill: #c5d877"/>
        <path d="M83.5,108a12,12,0,0,0,.8,2.7,8.8,8.8,0,0,1-.7-2.3V108" style="fill: #c5d877"/>
        <path d="M82.7,105.3a8.7,8.7,0,0,0,.5,2.2,9.6,9.6,0,0,0,1.1,2.8,5.3,5.3,0,0,0,2,2.2,4.5,4.5,0,0,1-2.2-2.3,14.9,14.9,0,0,1-.9-3l-.5-1.9" style="fill: #c5d877"/>
        <path d="M82.6,105.1a10.5,10.5,0,0,0,.6,2.4,8.7,8.7,0,0,1-.5-2.2v-.2" style="fill: #c5d877"/>
        <path d="M82.4,104.3a17.3,17.3,0,0,0,.7,3.1,11.7,11.7,0,0,0,1.4,3,6.4,6.4,0,0,1-1.3-2.9,10.5,10.5,0,0,1-.6-2.4l-.2-.8" style="fill: #c5d877"/>
        <path d="M83.7,108.7a9.1,9.1,0,0,0,2.2,4.9,11.8,11.8,0,0,1-1.6-2.9,3.8,3.8,0,0,0,2.1,2.5l.8.3h.5v-.2l.2-1.5c.3-1.9.6-3.8,1-5.5,0,2.5-.2,4.8-.4,7v1.9c0,.1-.1,0-.2,0h-.7a3.3,3.3,0,0,1-2.2-1.8,10.3,10.3,0,0,1-1.1-5.7l-.5,1.1" style="fill: #dee8b4"/>
        <path d="M83.7,108.7a9.1,9.1,0,0,0,2.2,4.9,9.1,9.1,0,0,1-2.2-4.9" style="fill: #bfd569"/>
        <path d="M84.6,106.1c0,.8-.1,1.6-.1,2.4a10.5,10.5,0,0,0,.1,2.5,9.6,9.6,0,0,0,1.9,4.8,4.9,4.9,0,0,0,2.1,1.4h.7v-.2l.2-.7a20.7,20.7,0,0,1,.9-2.4v1.3q-.2,1.7-.3,3v.8h-.6l-.7-.2-.7-.4a5.5,5.5,0,0,1-1.9-2.6,8.5,8.5,0,0,1-.9-3.1,10.8,10.8,0,0,1-.2-3.1,30.3,30.3,0,0,1,.2-3.1,15,15,0,0,0,0-3,7.3,7.3,0,0,0-.7-2.9l-.3-.5a9,9,0,0,1,1.3,3.8,18.3,18.3,0,0,1,.2,4.7,36.9,36.9,0,0,0-.1,4.7,16.4,16.4,0,0,0,1,4.1,14.5,14.5,0,0,1-.9-5.5c0-.9.1-1.8.1-2.8a26.2,26.2,0,0,0,.1-2.8,11.8,11.8,0,0,0-1.2-5.3,5.9,5.9,0,0,0-4-2.8,4.3,4.3,0,0,1,2.5.7,3.8,3.8,0,0,1,1.4,2.1,11,11,0,0,1,0,5.1" style="fill: #c5d877"/>
        <path d="M88,119.2a3.9,3.9,0,0,0,2.2,1.1h.3a.1.1,0,0,0,.1-.1h0v-.4l.3-.7a18.2,18.2,0,0,1,1.3-2.8,22.9,22.9,0,0,0-.9,2.8l-.8,1.5a4.8,4.8,0,0,1-2.6-1.4" style="fill: #c5d877"/>
        <polyline points="95.2 105.7 95.5 104.3 95.6 103.9 95.2 105.7" style="fill: #c5d877"/>
        <path d="M93.5,113.1h.1l.4-1.8,1.2-5.5.3-1.4L93.6,113h-.1m.5-1.9,1.2-5.5L94,111.2" style="fill: #c5d877"/>
        <path d="M91.4,119.1a22.9,22.9,0,0,1,.9-2.8,18.3,18.3,0,0,1,1.4-3.2l.3-1.9,1.2-5.5.4-1.8v.4c.8-2.6,1.6-5.4,2.6-8.4-.6,3.8-1,7.7-1.5,11.4s-1.5,4.6-2.2,7a20.3,20.3,0,0,0-1.8,2.3,14.2,14.2,0,0,0-1.2,2.5" style="fill: #c5d877"/>
        <path d="M91.4,119.1a22.9,22.9,0,0,1,.9-2.8,22.9,22.9,0,0,0-.9,2.8" style="fill: #bbd25f"/>
        <polyline points="95.2 105.7 95.6 103.9 95.2 105.7" style="fill: #bbd25f"/>
        <polyline points="94 111.2 95.2 105.7 94 111.2" style="fill: #bbd25f"/>
        <polyline points="94 111.2 95.2 105.7 94 111.2" style="fill: #bbd25f"/>
        <path d="M97.5,104.8a96.7,96.7,0,0,1,3.3-15c-.6,4.5-1,9.2-1.3,13.9l-.4-2.2c-.5,1.2-1.1,2.3-1.6,3.3" style="fill: #c5d877"/>
        <path d="M86.3,29.6l-1.7-1.2h.6l1.1,1.3" style="fill: #c5d877"/>
        <path d="M24,89.7l-3.6,7.1-8.7-9.1a102.4,102.4,0,0,1,9.6,5.5l5.9,4-2.6,1.6-2.4,1.5a21.4,21.4,0,0,1,1-2.2l1.5-3-3.5-.3-9.7-.6h0l2.4,2.5a58.1,58.1,0,0,1,3.7-17.6,16.8,16.8,0,0,1,1.4-3l.3-.7.4-.4.7-.7a2.4,2.4,0,0,1,2.6-.5,3.8,3.8,0,0,1,1.3,1,5,5,0,0,0-.2,1.2c0,.3-.1,1-.1,1.7s-.2,2.8-.3,4.2.1,5.4.3,7.8" style="fill: #c1d66d"/>
        <path d="M43.1,64.3l-1.9.3L43,63.5l1.5-1.1A46.9,46.9,0,0,1,49.7,59a7.1,7.1,0,0,1-2.3,2.6L45.3,63l-2.2,1.3" style="fill: #c5d877"/>
        <path d="M30.1,70.5a3.9,3.9,0,0,0-2.8.2A5.4,5.4,0,0,0,25,72.9l-.2.3a7.5,7.5,0,0,0-.5,1.6,3.8,3.8,0,0,0-1.3-1,2.4,2.4,0,0,0-2.6.5l-.7.7-.4.4-.3.7a16.8,16.8,0,0,0-1.4,3,58.1,58.1,0,0,0-3.7,17.6l-2.4-2.5h0l2.4,2.5a118.1,118.1,0,0,1,1.2-14.5c.3-2.4.7-4.8,1.2-7.1a21.5,21.5,0,0,1,2-6.2l.5-.7a15.3,15.3,0,0,1,2.9-3.3,21.9,21.9,0,0,1,3.7-2.5L28.5,61l3.4-1.3,7-2.5A51.2,51.2,0,0,0,46,53.8a50.2,50.2,0,0,0,6.4-4.7H50.8c-.9.8-2,1.4-3,2.2s-2.1,1.3-3.2,1.8A47.4,47.4,0,0,1,38,56.1l-2,.7c-4.1,1.5-8.1,2.8-11.5,4.4a21.4,21.4,0,0,0-8.2,6.6l-.2.2.2-.3a15.1,15.1,0,0,1,.9-1.8l1.2-1.6,1.4-1.5,1.6-1.3a31.5,31.5,0,0,1,7.5-3.9c3.6-1.4,7.3-2.4,10.9-3.7a44.4,44.4,0,0,0,7.7-3.5,56.5,56.5,0,0,0,6.9-4.8c4.3-3.4,8.1-7,11.6-10.2,1.3-1.2,2.7-2.7,4.2-4.4a22.5,22.5,0,0,1,2.1-2.4,20,20,0,0,1,1.9-2.2l-1.8,2.1-.9,1-1,1.4.2,1.2,1.8-1.6.4-.3.4-.2.7-.5a19.1,19.1,0,0,1,2.7-1.6l-1.2,1-2.1,2.2-2.9,3.4L65,41l-3.7,4.1h0c-1.9,2.2-3.8,4.4-6.1,6.6A50.8,50.8,0,0,1,47.3,58a47.2,47.2,0,0,0,7.2-4.3c1.2-.6,1.9-.8,2.2-.7s-.6,2.3-3.1,4.7l-.9.9-1.1.9-1.2.9-1.3.9-1.3.8-1.3.8a17.9,17.9,0,0,1-2.4,1.2l-1,.2L45.3,63l2.1-1.4A7.1,7.1,0,0,0,49.7,59a46.9,46.9,0,0,0-5.2,3.4L43,63.5l-1.8,1.1-2.1-.5-5.8,1c1.1-1.2-.7-1-2.4-.6l-2.5.6h-.7c-.2-.1-.3-.2-.3-.4a16.2,16.2,0,0,0-6.5,3.9,8.6,8.6,0,0,0-.3,1.7,7,7,0,0,0-.1,2.5A8,8,0,0,1,22,71.1a7.9,7.9,0,0,1,5.1-2.2c1.6,0,2.6.6,3,1.6" style="fill: #d0df92"/>
        <path d="M23,73.8a2.4,2.4,0,0,0-2.6.5l-.7.7-.4.4-.3.7a16.8,16.8,0,0,0-1.4,3,58.1,58.1,0,0,0-3.7,17.6l-2.4-2.5h0l2.4,2.5a58.1,58.1,0,0,1,3.7-17.6,16.8,16.8,0,0,1,1.4-3l.3-.7.4-.4.7-.7a2.4,2.4,0,0,1,2.6-.5" style="fill: #bcd35f"/>
        <path d="M41.2,64.6,43,63.5l1.5-1.1A46.9,46.9,0,0,1,49.7,59a46.9,46.9,0,0,0-5.2,3.4L43,63.5l-1.8,1.1" style="fill: #bdd362"/>
        <path d="M80.3,27.1H78.4l-1.7.6-1.2,1-2.1,2.2-2.9,3.4V35l2.7-2.9.6-.7.3-.3.2-.2.9-.9-.8,1.1-1.2,1.5-2.6,3.5a49.1,49.1,0,0,0,3.8-4l1.3-1.4,1.3-1.3a6.5,6.5,0,0,1,1.8-1.5l.7-.5.9-.3m-4.8,1.8-2.1,2.2-2.9,3.4,2.9-3.4,2.1-2.2" style="fill: #c5d877"/>
        <path d="M75.5,28.9l-2.1,2.2-2.9,3.4,2.9-3.4,2.1-2.2" style="fill: #bbd25f"/>
        <polyline points="41.8 65 41.2 64.6 43.1 64.3 41.8 65" style="fill: #c5d877"/>
        <polyline points="6.1 78.9 5.4 79.2 6.1 78.9" style="fill: #c5d877"/>
        <path d="M51.2,71.9l-2.7.6-2,.2a6.9,6.9,0,0,1-2.6-.2,2.4,2.4,0,0,1-1.7-2.1c-.2-1.8.9-4.1-.4-5.4l1.3-.7,1-.2a17.9,17.9,0,0,0,2.4-1.2l1.3-.8,1.3-.8,1.3-.9,1.2-.9,1.1-.9.9-.9c2.5-2.4,3.7-4.4,3.1-4.7s-1,.1-2.2.7A47.2,47.2,0,0,1,47.3,58a50.8,50.8,0,0,0,7.9-6.3c2.3-2.2,4.2-4.4,6.1-6.6L65,41l5.5-6.5V35c-1.6,1.9-3.2,3.9-4.9,5.8a32.8,32.8,0,0,0,5.2-5.3l2.5-3.1L74.3,31a3.9,3.9,0,0,0,.8-1l-.8,1.1-1.2,1.5-2.6,3.5a49.1,49.1,0,0,0,3.8-4l1.3-1.4,1.3-1.3c-.1.3-.1.6-.2.9a10.9,10.9,0,0,1,3.1-.1,14.1,14.1,0,0,0-4.2,2.5l-1.2,3.2,2.5-1.2a3.6,3.6,0,0,1,2-.5,16.2,16.2,0,0,1,3.2.2h0a4.6,4.6,0,0,0-2,.1l-1.1.3h-.3l-.5.4-1.2,1-4.9,4.7-5.8,6.2v1.3L64,50.3a16.1,16.1,0,0,0,2.9-1.5L70,46.5c2.1-1.5,4-3,5.4-3.5l-6.3,5.4c1.2.4,4.4-2.4,6-2.9a27.9,27.9,0,0,1-7,4.1,24.2,24.2,0,0,0-7.5,5.2l-.3.3-.5.4c-3,2.6-5.4,4.6-7.1,6.2a21.2,21.2,0,0,0-2.1,2,4.8,4.8,0,0,0-1,1.5c-.3.9.2,1.5,1.2,1.8a6.9,6.9,0,0,0,2.1.1,10.4,10.4,0,0,0,2.8-.4l-3.6,1.5A15.1,15.1,0,0,0,49.7,70c-.2.4-.1.6.3.8s1.8.3,1.2,1.1" style="fill: #d7e4a4;opacity: 0.8"/>
        <path d="M56.7,53c-.3-.1-1,.1-2.2.7A47.2,47.2,0,0,1,47.3,58a47.2,47.2,0,0,0,7.2-4.3c1.2-.6,1.9-.8,2.2-.7" style="fill: #c3d771"/>
        <path d="M47.3,58a50.8,50.8,0,0,0,7.9-6.3c2.3-2.2,4.2-4.4,6.1-6.6-1.9,2.2-3.8,4.4-6.1,6.6A50.8,50.8,0,0,1,47.3,58" style="fill: #c3d771"/>
        <polyline points="75.1 30 74.3 31.1 73.1 32.6 70.5 36.1 73.1 32.6 74.3 31.1 75.1 30" style="fill: #bed465"/>
        <polyline points="70.4 35 70.5 34.5 70.4 35" style="fill: #bed465"/>
        <path d="M83.6,22.9h1.2l1.7-.3-2-.6,2,.6.4-.8a24.5,24.5,0,0,0-5-1.7l2.9.5a16.6,16.6,0,0,0-4.5-1.2,17.4,17.4,0,0,1,5.6,1v-.5l-1.9-.7a12.9,12.9,0,0,0-4.8-.1,12.1,12.1,0,0,0-4.5,1.6,33.8,33.8,0,0,0-3.6,2.7A14.8,14.8,0,0,1,74.5,20l1.4-.8a13.3,13.3,0,0,1,6.5-1.3,26.4,26.4,0,0,1,6.8,1.3l1.6.4A26.9,26.9,0,0,0,81.9,17a21.3,21.3,0,0,0-4.4.2l-3.9,1-.6.3a1,1,0,0,1,.5-.4l.7-.4A11.6,11.6,0,0,1,80.4,16a16,16,0,0,1,5.8.9c3.8,1.1,7.1,3,10.9,5l.6.3a28.4,28.4,0,0,0-6.4-4.3,31.8,31.8,0,0,0-7.8-3,30.3,30.3,0,0,1,10,3.9,41.3,41.3,0,0,1,7.5,5.8l.7.5a15.8,15.8,0,0,1,4.3,5.4,9.9,9.9,0,0,1,.8,6.3,14.7,14.7,0,0,1-1.6,4.3c-.6,1.4-1.3,2.6-2,3.9,1.6-2.6,3.6-5.2,4.5-8.3v0c-.9,3.1-2.9,5.7-4.5,8.3a11.4,11.4,0,0,1-1,1.9l-1,2-1.9,4c-.5,1.4-1.1,2.8-1.7,4.1s-1.1,2.8-1.6,4.1c-2.1,5.5-3.8,11.1-5.4,16.8l1.8-4.3c.6-1.5,1.3-2.9,1.9-4.3-.1,1.4-.2,3-.4,4.5s-.5,3.1-.7,4.6l-.3,2.3-.3,2.1a28.5,28.5,0,0,0-.4,4c.4-2,1-3.8,1.5-5.9s1.1-3.9,1.8-5.8,1.2-3.8,1.9-5.7,1.2-3.8,1.9-5.8c-.7,2-1.3,3.9-1.9,5.8s-1.3,3.8-1.9,5.7-1.2,3.9-1.8,5.8-1.1,3.9-1.5,5.9L92,88.4c.7-1.4,1.2-3.2,1.9-5s1.2-3.8,1.8-5.8,1.3-3.8,1.9-5.7,1.4-3.6,2.1-5.2c-1.5,4.7-3.3,8.5-4.4,14.2l.7-1.5.6-2.5L96,79.4l-.9,3.8-.9,3.7c-.6,2.4-1.2,4.5-1.7,6.6s.5,5.7.7,9,.2,6.7,0,9.9l-.3,1.3-.6,2.6a18.3,18.3,0,0,1,1.4-3.2l.3-1.9-.4,1.8h0l1.9-8.7c.8-2.6,1.6-5.4,2.6-8.4-.6,3.8-1,7.7-1.5,11.4l.9-2.5a96.7,96.7,0,0,1,3.3-15c-.6,4.5-1,9.2-1.3,13.9l.4,9.6,1.6.7a41.6,41.6,0,0,0,2.4-9.4c.4-2,.8-4.4,1.2-6.9s.7-5.1,1.1-7.9l.3-2-1.6.3,1.5-3V83l-.2-1.8c.2-1.2.5-2.3.8-3.5a12.2,12.2,0,0,1-.2-3.4,18,18,0,0,1,.7-3.8,72.4,72.4,0,0,1,2.5-7.9l-1.1,2.1a8,8,0,0,1,.4-4.3c.4-1.1.9-2.2,1.4-3.3l1.6-2.9.6-1,.8-1.3,1.8-2.9.2-.5v.2l.2-.2a43.2,43.2,0,0,0,2.1-4.8,28.5,28.5,0,0,0,1.4-5,18.6,18.6,0,0,0,.7-3.4c.1-.7.1-1.4.2-2.1s0-2.1-.1-3.2c.1,1.1.1,2.2.1,3.2s-.1,1.4-.1,2.1a8.8,8.8,0,0,0-.2,1.6,9.4,9.4,0,0,1,.4-1.6c.1-.5.1-1,.2-1.5a6.1,6.1,0,0,1-.1,1.4,18.6,18.6,0,0,1-.9,4.7,18.8,18.8,0,0,0,1-4.7,23,23,0,0,0-.5-7.8,20.5,20.5,0,0,0-1.6-4.1l.7,1.1a32.2,32.2,0,0,0-2.5-5.3,39.3,39.3,0,0,0-9.1-9.1,31.7,31.7,0,0,0-4.1-2.1l-2.1-1L100,6.5l-1.3-.6,2.1.8,1.8.8,3.6,1.7,1.9,1,1.8,1.1a61,61,0,0,0-6-3.8l-3.3-1.6c-.8-.5-2.8-1.3-3.7-1.7l.9-.2a47.1,47.1,0,0,0-9.4-3A34.7,34.7,0,0,0,77.7.5h-.8a32.4,32.4,0,0,0-5.3,1.6A12.3,12.3,0,0,0,69,3.4L67.8,4l-1.2.7-1,.7,1-.7,1-.7h.3c0,.1,0,0,.1.1h.1l.6-.3,2.1-1.2,2.3-.9L75.5.7l-1-.7a21.9,21.9,0,0,0-4.3,1.5,8.1,8.1,0,0,0-2.1,1l-.5.3L67,3l-1,.6a42.6,42.6,0,0,0-9.8,9.2l-1.8,2.3-.8,1.1-.6.6.7-.6L50,21.4c-1.7,2.9-3.2,5.6-4.7,8L47.4,28l-2.1,1.4a71.3,71.3,0,0,1-6.9,10.2,7.6,7.6,0,0,1-.9.9l-.4.5-.5.5-1,.9-1.1.9c-1.5,1.3-3.3,2.6-4.9,3.9a74.2,74.2,0,0,0,7-3.6l1.3-.9,1.1-.9,1.9-2C44.6,36,48.3,31,52.8,25l1.5-2c-1.3,2.6-2.5,5.2-3.8,7.5l.3-.2-.7,1.8.4-1.6c-3.7,4.7-6.6,8.3-9.7,11.1a27.3,27.3,0,0,1-5.3,3.6,77.7,77.7,0,0,1-7.8,3.2l1.9-1.2-5.1,2.3L21.7,51l-1.6.9-1.5,1A30.6,30.6,0,0,0,15.7,55,32,32,0,0,0,13,57.5c-.3.5-.8.9-1.1,1.4l-1.1,1.4c-.7,1-1.2,2.1-1.8,3.1l-.2.5A25.2,25.2,0,0,0,8,69.3v2.6a5.3,5.3,0,0,0,.1,1.3v1.1c.2-1,.6-2.5.9-3.8a31.2,31.2,0,0,1,1.5-3.9,25.2,25.2,0,0,0-1,4.6c0,.3-.1,1.1-.1,1.9a2.9,2.9,0,0,0,.1,1.5c.1.1.2-.2.6-1.5l.9-2.9A21.5,21.5,0,0,1,13,65.8a20.6,20.6,0,0,1,6.1-6.7,32.4,32.4,0,0,1,6.9-4l-1.9,1.1-1.9,1.2-1.8,1.3a11.4,11.4,0,0,0-1.6,1.5,18,18,0,0,0-4.3,6.5,19.2,19.2,0,0,0-.9,6.1A27.3,27.3,0,0,1,16.1,68l.2-.3a15.1,15.1,0,0,1,.9-1.8l1.2-1.6,1.4-1.5,1.6-1.3a31.5,31.5,0,0,1,7.5-3.9c3.6-1.4,7.3-2.4,10.9-3.7a44.4,44.4,0,0,0,7.7-3.5,56.5,56.5,0,0,0,6.9-4.8c4.3-3.4,8.1-7,11.6-10.2,1.3-1.2,2.7-2.7,4.2-4.4a22.5,22.5,0,0,1,2.1-2.4,20,20,0,0,1,1.9-2.2l.4-.4L73,27.1a21.1,21.1,0,0,1,2.3-1.9,22.5,22.5,0,0,0-4.2,2.4,18.9,18.9,0,0,1,5.1-3.4l.3-.4.4-.3h-.5A18.7,18.7,0,0,0,72.6,26a19,19,0,0,1,3.7-2.6l1.1-.4.5-.5.6-.4a12.7,12.7,0,0,1,5.1.8m16.6,37.6c-2.4,5.7-4.9,10.7-6.7,18.4,1.8-7.7,4.3-12.7,6.7-18.4l1-2.3.6-1.5-.6,1.5-1,2.3L100,60l2.4-6.1L100,60l.2.5m5.6-32.7a9.2,9.2,0,0,1,1.6,8.9,38.5,38.5,0,0,1-2.2,5.2,38.5,38.5,0,0,0,2.2-5.2,9.2,9.2,0,0,0-1.6-8.9M102,24.3l-.3-.3a27.1,27.1,0,0,0-3.5-2.4,27.1,27.1,0,0,1,3.5,2.4l.3.3a15.9,15.9,0,0,1,4.2,5.3,15.8,15.8,0,0,1,.9,3.1,20.4,20.4,0,0,1,0,3.5,20.4,20.4,0,0,0,0-3.5,15.8,15.8,0,0,0-.9-3.1,15.9,15.9,0,0,0-4.2-5.3M101.1,56l.6-2.4-.6,2.4M35.9,50.5c-3.1,1.5-6.5,2.9-9.9,4.6,3.4-1.7,6.8-3.1,9.9-4.6m0,0c-3.1,1.5-6.5,2.9-9.9,4.6,3.4-1.7,6.8-3.1,9.9-4.6m0,0,1.4-.7,1.4-.8,1.3-.7,1.1-.7h.1l1.2-.8,1.1-.9,1.1-.9,1-1,1-1.1.8-.7.9-1.2.9-1.2.9-1.2.6-.9.9-1.3c.2-.3.3-.7.5-1A75.9,75.9,0,0,1,42,46.5l-.4.3-.3.3-1.4,1-.3.2-1.3.8-.7.5-1.7.9M10.6,66.6a9.5,9.5,0,0,1,.9-1.7,2.1,2.1,0,0,1,.4-.6,8.6,8.6,0,0,1,1-1.6,10.1,10.1,0,0,1,1.3-1.6c.4-.6.9-1,1.3-1.6l1.9-1.7,1-.8,1.3-1,1.4-1h.1l1.7-1.1L21.2,55l1.7-1.1L21.2,55h0l1.7-1.1-2.3,1.4-1.2.8-2.1,1.6-.6.5-.9.8-.9.9a9.4,9.4,0,0,0-1,1l-.8,1.2a13.4,13.4,0,0,0-1.7,2.7,12.6,12.6,0,0,0-.8,1.8m94.3,21.5h-.3l-.6,2.4.9-2.3" style="fill: #d7e4a4;opacity: 0.8"/>
        <path d="M35.9,50.5a50.6,50.6,0,0,0,5.2-2.9l-1.1.7-1.3.7-1.4.8-1.4.7" style="fill: #d7e4a4"/>
        <path d="M37.6,49.6l.7-.5,1.3-.8.3-.2-2.3,1.5" style="fill: #d7e4a4"/>
        <path d="M41.2,47.5A37.1,37.1,0,0,0,52.1,35.3c-.2.3-.3.7-.5,1l-.9,1.3-.6.9-.9,1.2-.9,1.2-.9,1.2-.8.7-1,1.1-1,1-1.1.9-1.1.9-1.2.8" style="fill: #d7e4a4"/>
        <polyline points="41.3 47.1 41.6 46.8 42 46.5 41.3 47.1" style="fill: #d7e4a4"/>
        <path d="M115.5,48.5V49l.2-.5" style="fill: #c6d979"/>
        <path d="M47.4,28l-2.1,1.4L47.4,28" style="fill: #bed465"/>
        <polyline points="93.5 113.1 93.6 113 94 111.2 93.6 113 93.5 113.1" style="fill: #bed465"/>
        <path d="M96.6,107.3c.5-3.7.9-7.6,1.5-11.4-.6,3.8-1,7.7-1.5,11.4" style="fill: #bed465"/>
        <path d="M100.8,89.8c-.6,4.5-1,9.2-1.3,13.9.3-4.7.7-9.4,1.3-13.9" style="fill: #bed465"/>
        <path d="M35.9,50.5l1.4-.7,1.4-.8,1.3-.7,1.1-.7-1.1.7-1.3.7-1.4.8-1.4.7" style="fill: #bed466"/>
        <path d="M37.6,49.6l.7-.5,1.3-.8.3-.2-.3.2-1.3.8-.7.5" style="fill: #bed466"/>
        <path d="M41.2,47.5l1.2-.8,1.1-.9,1.1-.9,1-1,1-1.1.8-.7.9-1.2.9-1.2.9-1.2.6-.9.9-1.3c.2-.3.3-.7.5-1s-.3.7-.5,1l-.9,1.3-.6.9-.9,1.2-.9,1.2-.9,1.2-.8.7-1,1.1-1,1-1.1.9-1.1.9-1.2.8" style="fill: #bed466"/>
        <polyline points="41.3 47.1 41.6 46.8 42 46.5 41.6 46.8 41.3 47.1" style="fill: #bed466"/>
        <path d="M26,55.1c3.4-1.7,6.8-3.1,9.9-4.6-3.1,1.5-6.5,2.9-9.9,4.6" style="fill: #bed466"/>
        <path d="M26,55.1c3.4-1.7,6.8-3.1,9.9-4.6-3.1,1.5-6.5,2.9-9.9,4.6" style="fill: #bed466"/>
        <path d="M74.2,26.4a20,20,0,0,0-1.9,2.2A22.5,22.5,0,0,0,70.2,31c-1.5,1.7-2.9,3.2-4.2,4.4-3.5,3.2-7.3,6.8-11.6,10.2a56.5,56.5,0,0,1-6.9,4.8,44.4,44.4,0,0,1-7.7,3.5,44.4,44.4,0,0,0,7.7-3.5,56.5,56.5,0,0,0,6.9-4.8c4.3-3.4,8.1-7,11.6-10.2,1.3-1.2,2.7-2.7,4.2-4.4a22.5,22.5,0,0,1,2.1-2.4,20,20,0,0,1,1.9-2.2" style="fill: #c3d771"/>
        <path d="M16.1,68l.2-.3a15.1,15.1,0,0,1,.9-1.8l1.2-1.6,1.4-1.5,1.6-1.3a31.5,31.5,0,0,1,7.5-3.9,31.5,31.5,0,0,0-7.5,3.9l-1.6,1.3-1.4,1.5-1.2,1.6a15.1,15.1,0,0,0-.9,1.8l-.2.3" style="fill: #c3d771"/>
        <path d="M14.2,61.1a10.1,10.1,0,0,0-1.3,1.6A29.6,29.6,0,0,1,18.4,57l-1,.8-1.9,1.7c-.4.6-.9,1-1.3,1.6" style="fill: #d7e4a4"/>
        <path d="M13.1,62.1l.8-1.2a9.4,9.4,0,0,1,1-1,9.6,9.6,0,0,0-1.8,2.2" style="fill: #d7e4a4"/>
        <path d="M16.7,58.2l.6-.5,2.1-1.6,1.2-.8-1.9,1.4-1,.7-1,.8" style="fill: #d7e4a4"/>
        <polyline points="21.1 55 21.2 55 21.2 55 21.1 55" style="fill: #d7e4a4"/>
        <polyline points="6.4 77.6 6.5 76.7 6.4 77.6" style="fill: #c5d877"/>
        <path d="M8.2,74.3A171.2,171.2,0,0,0,4.6,96.7l-.4,6,6.9.8,9.1.8L14,105.4h.8l-3.7-.3-8.2-.3.2-8V95.3c0-1.1,0-2.1.1-3.2a68.1,68.1,0,0,1,.9-9.5c.4-1.2.9-2.3,1.3-3.4h.1l.6-.3.3,2.6V76.7c.1-3.2.5-8.5,2.3-12.8A25.2,25.2,0,0,0,8,69.3v2.6a5.3,5.3,0,0,0,.1,1.3v1.1" style="fill: #c1d66d"/>
        <path d="M3.1,95.3v1.4l-.2,8,8.2.3,3.7.3-3.7-.3-8.2-.3.2-8V95.3c0-1.1,0-2.1.1-3.2-.1,1.1-.1,2.1-.1,3.2" style="fill: #bdd362"/>
        <polyline points="14.8 105.3 14 105.4 14.8 105.3" style="fill: #bdd362"/>
        <polyline points="6.1 78.9 5.5 79.2 5.4 79.2 6.1 78.9" style="fill: #bbd25d"/>
        <path d="M8.2,74.3V73.2A5.3,5.3,0,0,1,8,71.9V69.3a25.2,25.2,0,0,1,.8-5.4A25.2,25.2,0,0,0,8,69.3v2.6a5.3,5.3,0,0,0,.1,1.3v1.1" style="fill: #bdd362"/>
        <path d="M14.2,77.2c-1,5.8-2.3,13.1-2.8,19.5h.8l-.8.2h-.3v-.5A50.5,50.5,0,0,1,9,86.3c-.5-3.9-.7-8.2-.8-12,.2-1,.6-2.5.9-3.8a31.2,31.2,0,0,1,1.5-3.9,25.2,25.2,0,0,0-1,4.6c0,.3-.1,1.1-.1,1.9a2.9,2.9,0,0,0,.1,1.5c.1.1.2-.2.6-1.5l.9-2.9A21.5,21.5,0,0,1,13,65.8a20.6,20.6,0,0,1,6.1-6.7,32.4,32.4,0,0,1,6.9-4l-1.9,1.1-1.9,1.2-1.8,1.3a11.4,11.4,0,0,0-1.6,1.5,18,18,0,0,0-4.3,6.5,19.2,19.2,0,0,0-.9,6.1A27.3,27.3,0,0,1,16.1,68a18.1,18.1,0,0,0-.9,3.1c-.2,1.3-.4,2.8-.7,4.4l-.3,1.7" style="fill: #c1d66d"/>
        <path d="M13.6,72.8a19.2,19.2,0,0,1,.9-6.1,18,18,0,0,1,4.3-6.5,11.4,11.4,0,0,1,1.6-1.5l1.8-1.3,1.9-1.2L26,55.1l-1.9,1.1-1.9,1.2-1.8,1.3a11.4,11.4,0,0,0-1.6,1.5,18,18,0,0,0-4.3,6.5,19.2,19.2,0,0,0-.9,6.1" style="fill: #bdd362"/>
        <path d="M9.6,74.6a2.9,2.9,0,0,1-.1-1.5c0-.8.1-1.6.1-1.9a25.2,25.2,0,0,1,1-4.6,25.2,25.2,0,0,0-1,4.6c0,.3-.1,1.1-.1,1.9a2.9,2.9,0,0,0,.1,1.5" style="fill: #bdd362"/>
        <path d="M25.4,62.4a21.9,21.9,0,0,0-3.7,2.5,15.3,15.3,0,0,0-2.9,3.3l-.5.7a21.5,21.5,0,0,0-2,6.2c-.5,2.3-.9,4.7-1.2,7.1a118.1,118.1,0,0,0-1.2,14.5l-2.4-2.5h0c3.1.4,6.2.6,9.3.7h.4l3.3.2-1.4,3a20.4,20.4,0,0,0-.9,2.2c-3.4,2.1-6.2,4.8-9,7A34.2,34.2,0,0,1,14.8,94l6.1,10.2h-.7l-9.1-.8-6.9-.8.4-6A171.2,171.2,0,0,1,8.2,74.3c.1,3.8.3,8.1.8,12a50.5,50.5,0,0,0,2,10.4v.5h.3l.8-.2h-.8c.5-6.4,1.8-13.7,2.8-19.5h0l.3-1.7c.3-1.6.5-3.1.7-4.4a18.1,18.1,0,0,1,.9-3.1l.2-.2a21.4,21.4,0,0,1,8.2-6.6c3.4-1.6,7.4-2.9,11.5-4.4l2-.7a47.4,47.4,0,0,0,6.6-2.9c1.1-.5,2.1-1.2,3.2-1.8s2.1-1.4,3-2.2h1.6A50.2,50.2,0,0,1,46,53.8a51.2,51.2,0,0,1-7.1,3.4l-7,2.5L28.5,61l-3.1,1.4" style="fill: #c9db80"/>
        <path d="M25.4,62.4,28.5,61l3.4-1.3,7-2.5A51.2,51.2,0,0,0,46,53.8a50.2,50.2,0,0,0,6.4-4.7A50.2,50.2,0,0,1,46,53.8a51.2,51.2,0,0,1-7.1,3.4l-7,2.5L28.5,61l-3.1,1.4" style="fill: #bed465"/>
        <path d="M18.8,68.2l-.5.7a21.5,21.5,0,0,0-2,6.2c-.5,2.3-.9,4.7-1.2,7.1a118.1,118.1,0,0,0-1.2,14.5l-2.4-2.5h0l2.4,2.5a118.1,118.1,0,0,1,1.2-14.5c.3-2.4.7-4.8,1.2-7.1a21.5,21.5,0,0,1,2-6.2l.5-.7" style="fill: #bed465"/>
        <path d="M44.6,53.2A47.4,47.4,0,0,1,38,56.1l-2,.7c-4.1,1.5-8.1,2.8-11.5,4.4,3.4-1.6,7.4-2.9,11.5-4.4l2-.7a47.4,47.4,0,0,0,6.6-2.9" style="fill: #bed465"/>
        <path d="M14.2,77.2h0l.3-1.7-.3,1.7" style="fill: #bbd25e"/>
        <path d="M12.2,96.9l-.8.2h-.3v-.5A50.5,50.5,0,0,1,9,86.3c-.5-3.9-.7-8.2-.8-12,.1,3.8.3,8.1.8,12a50.5,50.5,0,0,0,2,10.4v.5h.3l.8-.2" style="fill: #bbd25e"/>
        <path d="M11.5,94.2l9.7.6,3.5.3-1.5,3a21.4,21.4,0,0,0-1,2.2,20.4,20.4,0,0,1,.9-2.2l1.4-3-3.3-.2h-.4c-3.1-.1-6.2-.3-9.3-.7" style="fill: #c5d877"/>
        <path d="M11.5,94.2l9.7.6,3.5.3-1.5,3a21.4,21.4,0,0,0-1,2.2,21.4,21.4,0,0,1,1-2.2l1.5-3-3.5-.3-9.7-.6" style="fill: #bbd25d"/>
      </g>
    </g>
    <path d="M21.7,58.7c-4.1.3-8.2.9-12.2-.4S5.6,54.8,7.8,52,13,49,16,49.1c9.5.2,19-.4,28.5-.5,1.3,0,1.7-.4,2.2-1.5,2.2-4.8,3.7-9.8,6.4-14.4l3.2-5.8c2.9-5.8,6.7-10.2,13.9-11,9.4-1,18.6-.7,27.7,2.1,4.8,1.4,6.7,4.2,6.8,9.3.1,3.1-1.4,5.8-2.6,8.5-4.9,11.1-6.6,23.1-9.9,34.7C89.8,79,89,87.7,87.5,96.4c-.5,2.6-1.5,5.1-2,7.7a78.4,78.4,0,0,0-.8,11.9c-.1,2.5-1.1,3.5-3.4,3.5a32,32,0,0,0-4.4-.1c-2.2.1-3.2-.9-3.4-3a14.2,14.2,0,0,1,.2-4.6,61.7,61.7,0,0,0,.8-6.2c.1-.7.2-1.3-.9-1.4a58.8,58.8,0,0,0-9.4-.2c-6.8.5-13.7,1.2-20.7.6-4-.3-8-1-12.1-.9-1.5,0-2.1.1-2.3,2a68.6,68.6,0,0,0-.3,11.1c.1,1.3-.5,2.1-2.1,1.7a24.5,24.5,0,0,0-7.2-.7c-1.1.1-1.5-.3-1.9-1.5s-.2-5.1-.2-7.6,1.5-6.1-1.5-8.9a58.1,58.1,0,0,1-5.4-5.6c-.3,4.3-.4,4.4-4.2,3.9H3.7c-2.9.5-3.8-.3-3.6-3.2a49.5,49.5,0,0,0,.1-7.7,30.1,30.1,0,0,1,.4-9.5,37,37,0,0,1,3.8-9.5,12.5,12.5,0,0,1,9.2-6.8c3.9-.7,8-1,11.6-3.1Zm-1.3,40c.3,1.8,2.2,1.7,3.5,1.8a52.9,52.9,0,0,0,8,.7c4.7-.2,9.4,1.1,14.1,1.1s8.1-.1,12.2-.4c7.4-.6,14.9-1.2,22.3.7,2.4.6,3.5-.6,3.8-2.6,1.1-5.8,2.3-11.5,3.1-17.3A116.9,116.9,0,0,1,92,62.6c1.2-4.1,1.4-8.4,2.7-12.6s3.8-11.2,6-16.6a19.3,19.3,0,0,0,1.6-4.6c.8-5.6-1.3-7.7-6.7-6.9a14.5,14.5,0,0,0-11,8c-2.9,5.3-5.7,10.6-8.7,15.8s-3.8,9.7-5.1,14.8S68.1,70.6,65,74.9l-.5.6c-4.8,2.5-9.2,5.4-15.2,4.6s-13.3-.8-19.9-.8a7.5,7.5,0,0,0-6.3,3.5,24.1,24.1,0,0,0-3.3,10A46.9,46.9,0,0,0,20.4,98.7ZM67.8,18.9c-3.9.6-6.9,4-8.6,7.4s-3.3,5.8-4.6,8.9c-2.4,5.7-5.1,11.3-7.4,16.9s-.7,7.6,3,8.3,4.1,2.5,6.7,2.6,5.1.9,7.7,1,3.3-.1,3.7-2.5C69.6,51.3,74.8,42.7,79.6,34c1.5-2.7,3.1-5.4,4.8-7.9a11.4,11.4,0,0,1,7.5-5.4,5.9,5.9,0,0,0,2.6-1C85.7,16.7,76.7,17.5,67.8,18.9ZM38,74.3c-3.3,0-6.6.2-9.8.3s-3.3-1.1-3.2-3.4a16.2,16.2,0,0,1,1.2-5.8c.8-1.8,2.7-2.3,4.6-2.2,5.4.1,10.8-.1,16.1-.5h1.4c-1.1-1-2.1-1.5-2.7-2.5s-3.2-2.3-5.7-1.6c-5.4,1.4-11.1,2.2-16.6,3.6-2.8.7-5.7,1.1-8.5,1.6s-7.2,2.8-8.7,6.8-2.4,4.9-2.9,7.4.5,3.6,1.4,5.2c3.1,5.8,8.2,9.8,13.4,14.8-1.3-5.5,0-9.9,1.8-14.2a11,11,0,0,1,10.7-6.9c7.6.2,15.1.6,22.6.9,1.9.1,3.8-.1,5.4-2.1C51.4,75.2,44.7,74.2,38,74.3Zm22.9-1c2.1.1,4.5-2.6,5.4-5.9.5-1.7.6-2.4-1.5-2.2-6.8.8-13.6-.4-20.5,0a124.6,124.6,0,0,1-13.7.5c-1.7-.1-4.1,4.6-3.2,6s1.8.4,2.9.6C40.4,71,50.6,72.7,60.9,73.3ZM13,51.7c-1.9,0-2.9,1.3-3.8,2.7s.4,1.2,1,1.5c3.9,1.5,7.9.5,11.8.2s6.9-.1,10.3-.9c.4,0,1.1,0,1.2.3,1.7,2.8,4.1,1.3,5.9.6s4.8-2.3,5.4-5.4C34.2,51.4,23.6,51.8,13,51.7Zm63.4,64.9c1.5.7,3.3.6,5,.7s.8-.7.9-1.3c.2-3.1.3-6.1.5-9.1.2-1.2,0-1.7-1.3-1.7s-3.1-1.6-4.1-.7-.6,2.7-.9,4.1a24.2,24.2,0,0,0-.6,4.6C76.1,114.4,75.5,116.3,76.4,116.6Zm-50.2-2.9c-.5-2.9.2-5.8.4-8.7.1-1.4-.3-2-1.6-1.8s-3.1-1.4-4.1-.2-.4,2.6-.5,4,.2,2.4-.2,3.4c-1.7,4.5-.2,4.9,4.5,5.3C26,116,26.5,115.5,26.2,113.7ZM2.6,94.2c0,1.3.1,2.1,1.7,1.5s.7.1,1,0,2.1.8,2.4-.4.8-3-.2-3.9-2.6-3.6-4.2-5.7A52.1,52.1,0,0,0,2.6,94.2Z" style="fill: #414142"/>
  </g>
</svg>
