<svg xmlns="http://www.w3.org/2000/svg" viewBox="0 0 50 50">
  <title>location</title>
  <g>
    <g>
      <path d="M24.3,40.9c-1.2-2.3-2.7-4.3-3.8-6.6a44.8,44.8,0,0,1-2.8-7.2c-1.4-4.8-2.3-10.4.6-14.8a8,8,0,0,1,5.5-3.6A9.8,9.8,0,0,1,30.9,10c4.5,3.2,2.3,9.6.6,13.7-2.4,6-4.8,12-7.3,18-.5,1.2,1.6,1.8,2,.7,2.4-6.1,4.9-12.1,7.3-18.2,1.8-4.6,3.6-10.9-.7-14.8A10.7,10.7,0,0,0,25.7,7a10.5,10.5,0,0,0-7.2,2.4c-4.2,3.8-4.5,9.7-3.4,14.9a44.4,44.4,0,0,0,3,8.9,31.4,31.4,0,0,0,5.1,8.2c.4.5,1.5.1,1.1-.5Z" style="fill: #7783db"/>
      <path d="M25.7,16.6a2.6,2.6,0,0,0-2.7-.8c-1.4.4-1.7,1.6-1.7,2.8a3.8,3.8,0,0,0,3.8,4H26A3.8,3.8,0,0,0,28.9,18a1.4,1.4,0,0,0-.2-.6,3.5,3.5,0,0,0-2.4-2.2,3.1,3.1,0,0,0-3.1.5c-.7.5.1,1.1.7.9a2.9,2.9,0,0,1,2.9,1.2,2.3,2.3,0,0,1-1.1,3,2,2,0,0,1-2.4-1.5v-.2c-.1-.7-.3-1.7.6-1.8l1.6-.2c.2-.1.3-.3.2-.4Z" style="fill: #7783db"/>
    </g>
    <rect width="50" height="50" style="fill: none"/>
  </g>
</svg>
