<svg xmlns="http://www.w3.org/2000/svg" viewBox="0 0 15.086 26">
  <defs>
    <style>
      .cls-1 {
        fill: #7783db;
      }
    </style>
  </defs>
  <g id="Group_93" data-name="Group 93" transform="translate(-0.004 0.017)">
    <g id="Group_90" data-name="Group 90" transform="translate(0.004 -0.017)">
      <g id="Group_89" data-name="Group 89" transform="translate(0 0)">
        <path id="Path_555" data-name="Path 555" class="cls-1" d="M7.057,24.431c-.9-1.6-1.962-3.075-2.769-4.731a35.455,35.455,0,0,1-2.017-5.218C1.269,11.06.6,6.97,2.7,3.811A5.834,5.834,0,0,1,6.71,1.168a7.536,7.536,0,0,1,5.12.96c3.214,2.31,1.628,6.957.445,9.893-1.753,4.355-3.478,8.724-5.3,13.051-.348.835,1.141,1.294,1.447.5,1.7-4.425,3.506-8.793,5.245-13.2,1.308-3.325,2.6-7.847-.459-10.672A7.814,7.814,0,0,0,8.018-.015,7.35,7.35,0,0,0,2.869,1.71C-.191,4.424-.4,8.737.407,12.48a29.425,29.425,0,0,0,2.184,6.456,22.444,22.444,0,0,0,3.687,5.913c.278.306,1.057.07.779-.417Z" transform="translate(-0.004 0.017)"/>
      </g>
    </g>
    <g id="Group_92" data-name="Group 92" transform="translate(4.887 5.73)">
      <g id="Group_91" data-name="Group 91">
        <path id="Path_556" data-name="Path 556" class="cls-1" d="M38.258,42.476a1.767,1.767,0,0,0-1.976-.584c-.988.264-1.169,1.127-1.183,2.045a2.818,2.818,0,0,0,3.367,2.852,2.784,2.784,0,0,0,2-3.757,2.879,2.879,0,0,0-1.767-1.6,2.343,2.343,0,0,0-2.268.39c-.487.334.1.779.5.682a2.123,2.123,0,0,1,2.157.863,1.645,1.645,0,0,1-.821,2.143,1.436,1.436,0,0,1-1.753-1.238c-.083-.473-.181-1.238.417-1.322a5.467,5.467,0,0,0,1.169-.125.247.247,0,0,0,.153-.348Z" transform="translate(-35.099 -41.292)"/>
      </g>
    </g>
  </g>
</svg>
