<svg xmlns="http://www.w3.org/2000/svg" viewBox="0 0 242.8 223.5">
  <title>sofa</title>
  <g>
    <g>
      <path d="M230.6,103.4c-.9-3.2,1.4-7-.8-9.8a9.3,9.3,0,0,0-3.5-2.3c-15.7-7.3-34.3-9.2-52.2-8.9s-35.9,2.4-53.9,2.5c-19.9.1-41.2-2.1-58.5,6.2a7.1,7.1,0,0,0-2.6,1.8,5.9,5.9,0,0,0-1,3.9l-.2,9.5c.6-1.4-1.8-2.8-3.5-2.3s-2.8,2-3.7,3.4c-4.2,6.5-8.4,13.1-9.7,20.4s.9,15.5,7.7,20.1a16.5,16.5,0,0,1,3.9,2.9c4.4,4.6-.6,11.6,1.7,17.2a3.4,3.4,0,0,0,1.9,2.2,8.5,8.5,0,0,0,2.3.4l55.4,2.5c6.3.3,12.7.6,18.9-.5s9.5-2.4,14.3-3.1c13.9-2.2,27.9,2.6,41.9,4.2a104.6,104.6,0,0,0,14.8.5c10.6-.4,22.2-3.4,27.2-11.2s2.3-15.3,2.5-23.1a13.4,13.4,0,0,1,1-5.2,38.3,38.3,0,0,1,2.8-4.2,18.2,18.2,0,0,0,1.9-17.7c-1-2.4-2.6-4.7-3.9-7.1a31.1,31.1,0,0,1-3.4-19.8" style="fill: #009fe3"/>
      <g style="opacity: 0.8">
        <path d="M226.2,96.4h-.5l-.6.2H213.8l-5.7-.5-22-2.3a14.3,14.3,0,0,0-3.6-.2l-.8.6-.9,1.2c-.5.6-1.1,1.1-1.6,1.6l-3.1,3.3c.4-1.2.8-2.4,1.3-3.7l.4-.9.2-.4.2-.8.2-.7v-.4l.2-.3h.3l1.7.2,17,1.8,4.2.4h3.2l5.5.6,2.8.2h2.3a35.5,35.5,0,0,0,4.6.3h5.8l.2-.2h-.2l-.2.2a1.2,1.2,0,0,0-.5.5,28,28,0,0,0-3.4,4.8l-.6,1.1-.8,1.4-.9,1.7-1,2.1-1.3,2.6-1.9,3.8-2.6,5.5c-1.4,2.8-2.7,5.7-4,8.5l-2.9,6.2H206v-.2l-.2-.3-.4-.7-.5-.7-.5-.6-.6-.7a34.2,34.2,0,0,0-6.3-5.2c-5.1-3.5-11.5-6.9-17.1-11.6a91.9,91.9,0,0,0,10.7,1.5l3.3.4,3,.5,2.3.7-1,.6c2.5-1.4,5-2.8,7.6-4a41,41,0,0,1,5.6,2.4,41,41,0,0,0-5.6-2.4c2.2-.7,4.6-1.4,6.9-1.9l3.5-.6.3-.2h.1l.3-.6.4-.9,1.6-3.2,1.3-2.4,1-1.8,1.5-2.5a18.4,18.4,0,0,1,2.1-2.9l.4-.4.3-.4.3-.2h.1l-.2.2h0" style="fill: #5bc5f2"/>
        <path d="M58.7,158.7v2.8l-.2,1.7v-1.1l.2-1.5v-2.2l.2-3.2.4-5.5.6-12,.4-9.5.2-2.4v-.7h.1l1.2-1c8.7-2,17.5-4,25.7-7.3a99.6,99.6,0,0,1,15.2-3q3.9-.4,7.8-.6H121l-1,1.6-.6.8-.6.4-.7.3-3.2,1.5-3.3,1.4h-1.3c-9.2-.4-17.6,1.2-25.8,3-4.2.9-8.2,1.8-12.3,2.5-2,.4-4.1.7-6.1.9L63,126H60.4c0,.1.1-.2,0,.2v3.4l-.7,13.5L59,154l-.3,4.7" style="fill: #5bc5f2"/>
        <path d="M120.5,95.3a13.2,13.2,0,0,0,.5-3.2V90.7h0c-.1-.1.1-.1.2-.2h.3l1.6-.6a89.3,89.3,0,0,1,10.4-3l6.5-1.4,1.6-.3,1.6-.2,3.1-.4.3,3.6-2.9.3-3,.4-6.2,1.2a84.7,84.7,0,0,0-10.2,2.9l-.9.3-.8.3-.7.3h-.2v.4l-.3.3h0c-.1,0-.3-.1-.4-.4v.8l-.6.4" style="fill: #00ace9"/>
        <path d="M125.8,97.1l1-.4,1.1-.4,2.5-.8,2.8-.9,3-.7,6.2-1.4,6-1,3.1.7-3.3.3-3.3.4-7,1.1-3.4.7-1.8.4-1.5.4-5.4,1.6" style="fill: #00ace9"/>
        <path d="M38.6,190a32,32,0,0,1-3.6-3.9,32.1,32.1,0,0,1-2.3-3.8,20.5,20.5,0,0,1-1.5-3.5l-.3-.8a1.9,1.9,0,0,1-.2-.7l-.3-1.3a9.8,9.8,0,0,0,.5,1.6c.2.6.4,1.3.7,2a32,32,0,0,0,2.4,4.3,27.4,27.4,0,0,0,3.9,4.8,28.1,28.1,0,0,0,5.7,4.2,27.2,27.2,0,0,1-5-2.9" style="fill: #00ace9"/>
        <path d="M154.4,216.3v-1.7a6.9,6.9,0,0,0-.2-1.3v-1.7c.1,1.1.3,2.2.5,3.3l.7,3.7-.7-3.7c-.2-1.1-.4-2.2-.5-3.3v1.7a6.9,6.9,0,0,1,.2,1.3v1.7" style="fill: #00ace9"/>
        <path d="M155,218.6l.9,4.9-.9-4.9" style="fill: #00ace9"/>
        <path d="M179.4,114.5l-1.9-2,1.9,2" style="fill: #00ace9"/>
        <polyline points="170.5 220.9 168.5 219.8 170.5 220.9" style="fill: #00ace9"/>
        <path d="M89.2,150.1a47.3,47.3,0,0,0,2.9,4.4,47.3,47.3,0,0,1-2.9-4.4" style="fill: #00ace9"/>
        <path d="M30.4,176a21.7,21.7,0,0,1-.4-2.5V173h0l.2-.3.7-1.1a15.3,15.3,0,0,1,1.6-2.2,15.3,15.3,0,0,0-1.6,2.2l-.7,1.1-.2.3h0v.5a21.7,21.7,0,0,0,.4,2.5" style="fill: #00ace9"/>
        <path d="M173.4,105.3,172,104l1.1.9.3.4" style="fill: #00ace9"/>
        <path d="M182.6,116.8l-3.2-2.3,1.9,1.2,1.3,1.1" style="fill: #00ace9"/>
        <path d="M167.2,101.3l1-1.9.2.5-.2-.5.2.5v.4l-1.3,1" style="fill: #00ace9"/>
        <path d="M177.1,109.5c-1.3-1.4-2.6-2.8-3.7-4.2L172,104l1.1.9c-1.4-1.7-2.5-3.3-3.5-4.7s-2.2-3.8-3-5.1v2l2,1.6-.4.7.2.5.5.5h-.4l1.7,2.5,1.8,2c-.7-1-1.3-2-1.9-3l2.1,3H172a36.4,36.4,0,0,0,2.4,3.5l2.7,1.2m-4.9-4.7h0" style="fill: #00ace9"/>
        <path d="M173.1,104.9,172,104l1.1.9" style="fill: #00a1e4"/>
        <polyline points="168.4 99.9 168.2 99.4 168.4 99.9" style="fill: #00a1e4"/>
        <path d="M186.3,116.7l-1.5-.4-2.2-.9a34.1,34.1,0,0,1-6.8-5.5l-1.4-1.6,2.7,1.2a46.5,46.5,0,0,0,9.2,7.2" style="fill: #00ace9"/>
        <polyline points="168.9 100.4 168.5 100.3 168.4 99.9 168.9 100.4" style="fill: #00ace9"/>
        <polyline points="168.9 100.4 168.5 100.3 168.9 100.4" style="fill: #00a1e4"/>
        <path d="M187,116.9h-1l-1.2-.7,1.5.4.7.2" style="fill: #00ace9"/>
        <polyline points="186.4 117.2 186 117 186.4 117.2" style="fill: #00ace9"/>
        <path d="M185.5,117l-2.9-.2,1.3-.3,1.6.5" style="fill: #00ace9"/>
        <polyline points="168.4 99.9 168.2 99.4 168.4 99.9" style="fill: #00a1e4"/>
        <path d="M186.4,117.2l-.9-.2.9.2" style="fill: #00ace9"/>
        <path d="M186,117h-.5l-1.6-.5-1.3-1.1,2.2.9-2.2-.9,2.2.9,1.2.7" style="fill: #00ace9"/>
        <path d="M186.4,117.2l-.9-.2h.5l.4.2" style="fill: #00a1e4"/>
        <path d="M185.5,117l-1.6-.5,1.6.5" style="fill: #00a1e4"/>
        <path d="M184.8,116.3l-2.2-.9,2.2.9" style="fill: #00a1e4"/>
        <path d="M183.9,116.5l-1.3.3-1.3-1.1,2.6.8" style="fill: #00ace9"/>
        <polyline points="182.6 116.8 181.3 115.7 182.6 116.8" style="fill: #00a1e4"/>
        <path d="M183.9,116.5l-1.3.3,1.3-.3" style="fill: #00a1e4"/>
        <path d="M183.9,116.5l-2.6-.8a26.2,26.2,0,0,1-2.2-2.5,27.5,27.5,0,0,0,3.3,2.3h.2l1.3,1.1" style="fill: #00ace9"/>
        <path d="M183.9,116.5l-2.6-.8,2.6.8" style="fill: #00a1e4"/>
        <polyline points="172.5 104.8 172.2 104.8 172.5 104.8" style="fill: #00a1e4"/>
        <path d="M172.2,104.8H172c-.7-1-1.3-2-1.9-3l2.1,3" style="fill: #00ace9"/>
        <polyline points="172.2 104.8 172 104.8 172.2 104.8" style="fill: #00a1e4"/>
        <path d="M172,104.8c-.7-1-1.3-2-1.9-3,.6,1,1.2,2,1.9,3" style="fill: #00a1e4"/>
        <path d="M175.8,109.9l-1.5-1.2v-.4l1.4,1.6" style="fill: #00ace9"/>
        <path d="M182.6,115.4h-.2a40.6,40.6,0,0,1-6.6-5.6,34.1,34.1,0,0,0,6.8,5.5" style="fill: #00ace9"/>
        <polyline points="182.6 115.4 182.4 115.5 182.6 115.4 182.4 115.5 182.6 115.4" style="fill: #00a1e4"/>
        <polyline points="182.6 115.4 182.4 115.5 182.6 115.4" style="fill: #009fe4"/>
        <path d="M162.5,193.7c-1.9-1-4.1-2-5.1-2.7l-.9-.6-.8-.5-1.4-1,1.7.9,1.9,1.1.6.2.3.2h.4l1.6.7,3.3,1.4-1.6.2" style="fill: #00ace9"/>
        <path d="M157.5,194.6a8.5,8.5,0,0,1-1.6-1.7l-1.3-1.6-1.3-1.6-1.4-1.5,3.5,2.7.9.7.2.2.3.2.5.4,1.1.8h.4l.4.3.9.4-1.6.2-1,.3" style="fill: #00ace9"/>
        <path d="M154,206.9a14,14,0,0,0-2.9-.2h-2.4l-3.2.4a46.1,46.1,0,0,1-6.4.2,29.3,29.3,0,0,1-6.7-1.1,47.5,47.5,0,0,0,6.5-.2c3.3-.2,6.6-.7,10-1.2l-.9.2a10.1,10.1,0,0,1,3.1,0,2.7,2.7,0,0,1,1.5.4c.3.1.5.4.7.6l.3.3.4.3" style="fill: #00ace9"/>
        <path d="M154,206.9l-.4-.3-.3-.3c-.2-.2-.4-.5-.7-.6a2.7,2.7,0,0,0-1.5-.4,10.1,10.1,0,0,0-3.1,0l.9-.2h2.5l1.3.4.6.7.7.6" style="fill: #00ace9"/>
        <path d="M154,206.9l-.4-.3-.3-.3c-.2-.2-.4-.5-.7-.6a2.7,2.7,0,0,0-1.5-.4,10.1,10.1,0,0,0-3.1,0,10.1,10.1,0,0,1,3.1,0,2.7,2.7,0,0,1,1.5.4c.3.1.5.4.7.6l.3.3.4.3" style="fill: #00a1e4"/>
        <path d="M155.7,194.9l-1.7-2,1.6.8.8.4,1.1.5h-1l-.8.2" style="fill: #00ace9"/>
        <path d="M186,197.5l-4.7-1.4,4.7,1.4" style="fill: #00ace9"/>
        <path d="M242.8,92.4a13.7,13.7,0,0,1-1.3-2,16.2,16.2,0,0,1-2.9-3.4,20.3,20.3,0,0,0-3.3,8.7,19.8,19.8,0,0,0,1.6,10.5l.3-2.8c.8,1.8,1.6,3.6,2.3,5.6a16.7,16.7,0,0,1,.9,5.8,21.3,21.3,0,0,1-2.9,10,14.1,14.1,0,0,0,3.8-7.7,16.7,16.7,0,0,0,.1-5c-.2-1.7-.6-3.4-.9-5a20.2,20.2,0,0,1-.6-8.3,13,13,0,0,1,2.9-6.4" style="fill: #82d0f5"/>
        <path d="M234.9,137.8a18.7,18.7,0,0,0-.7,2.2,18.7,18.7,0,0,1,.7-2.2" style="fill: #00ace9"/>
        <polyline points="236.9 106.2 238.5 109.6 236.9 106.2" style="fill: #00ace9"/>
        <path d="M237.3,135.1a8.7,8.7,0,0,0-2.4,2.7,8.7,8.7,0,0,1,2.4-2.7" style="fill: #00ace9"/>
        <path d="M182.7,186.3l-4.4-1.5-4.4-3.1,8.6,3.7.2.9" style="fill: #00ace9"/>
        <path d="M182.8,187.1l-4.5-2.3,4.4,1.5v.8" style="fill: #00ace9"/>
        <path d="M185.2,192.6l-4-2.1c-3.1-1.9-6.2-3.9-9.1-5.9,3.6,1.6,7.3,3.1,11,4.5l2.1,3.5" style="fill: #00ace9"/>
        <path d="M185.2,193l-4-2.5,4,2.1v.4" style="fill: #00ace9"/>
        <path d="M186.2,194.3c-3.8-1.9-7.5-3.9-11-5.9l6,2.1,4,2.5,1,1.3" style="fill: #00ace9"/>
        <path d="M182.5,185.4l-8.6-3.7,4.4,3.1L166,181.3l-6.1-1.7-1.3-.4-1.3-.3-2.2-.8a26.7,26.7,0,0,1,5.1-.5,56.1,56.1,0,0,1,5.9.6c6.8,1,13.7,3.1,20.5,4.2l-4.1,3" style="fill: #82d0f5"/>
        <path d="M182.5,185.4l-8.6-3.7,8.6,3.7" style="fill: #00a5e6"/>
        <path d="M189.8,182l-.8-.3c-5.1-1.6-10.4-3.5-15.2-5.5a48.9,48.9,0,0,1-12.4-7.3h2a45,45,0,0,1,12.4,4c4,1.8,8.1,3.9,12.4,5.4a35.7,35.7,0,0,0,11.8,2.1h1.1c-4.1-1.8-9.1-3.6-13.8-5.9a65.2,65.2,0,0,1-11-6.6l10.8,5.6a108.4,108.4,0,0,0,21.1,7.7,102.7,102.7,0,0,1-18.4.7" style="fill: #00ace9"/>
        <path d="M172.8,167.8l-11.9-9.4,4.8,2.1c2.2,2.4,4.6,4.8,7.1,7.3" style="fill: #00ace9"/>
        <path d="M139.3,154.7h0" style="fill: #00ace9"/>
        <path d="M153.8,156.9l-1.9-.5-2-.5a43.7,43.7,0,0,0-5.4-.8l-5.2-.4h-2.1l8.2.6c1.5.2,2.9.3,4.3.6l2.1.4,2,.5m-3.9-1a43.7,43.7,0,0,0-5.4-.8l-5.2-.4,5.2.4a43.7,43.7,0,0,1,5.4.8" style="fill: #00ace9"/>
        <path d="M165.7,160.5l-4.8-2.1-2.5-.8-2.7-.7a54,54,0,0,0-5.8-1,43.7,43.7,0,0,0-5.4-.8l-5.2-.4h-2.1l-1-.3-.8-.4-1.7-.7a25.3,25.3,0,0,1-3.3-1.6l-3.3-1.9h3l3.5-.4,1.7-.2,2.6-.4,3.8,1,4.1,1,2.1.5,2.1.7,3.9,1.4c1.3.4,2.5,1,3.7,1.5l1.6.9,1.6.9,2.5,1.8,2.4,1.9" style="fill: #00ace9"/>
        <path d="M165.7,160.5l-4.8-2.1,4.8,2.1" style="fill: #00a1e4"/>
        <path d="M139.3,154.7h0" style="fill: #00a1e4"/>
        <path d="M149.9,155.9a43.7,43.7,0,0,0-5.4-.8l-5.2-.4,5.2.4a43.7,43.7,0,0,1,5.4.8" style="fill: #00a1e4"/>
        <path d="M149.9,155.9a43.7,43.7,0,0,0-5.4-.8l-5.2-.4,5.2.4a43.7,43.7,0,0,1,5.4.8" style="fill: #00a1e4"/>
        <path d="M133.8,147a18.9,18.9,0,0,1-4.2-.3,15,15,0,0,1-8.5-4.2,39.3,39.3,0,0,0,7.6-1.5,10.4,10.4,0,0,0,1.6-.6,26.8,26.8,0,0,1-.7,2.7l4.2,3.9" style="fill: #00ace9"/>
        <path d="M.9,104.8a79.7,79.7,0,0,1,6.5-6.5c-.2,1-.4,1.9-.5,2.8-2.1,1.2-4.1,2.4-6,3.7" style="fill: #00ace9"/>
        <path d="M192.3,33.6a109,109,0,0,1,19.1,22.2A74,74,0,0,1,221.7,80a105.5,105.5,0,0,0-19.4-5.9c-10.5-3-21.1-6.3-29.3-10.6s-13.6-9.8-13.8-16.6a13.8,13.8,0,0,1,1.2-6.1c5.1-.8,10.3-2.1,15.7-3.4s10.9-2.7,16.2-3.8" style="fill: #00a7e7"/>
        <path d="M115.7,40.9l2.2,1.6c-3.9,1.5-4.4,5.5-12,5.8.6-2,2.1-3.3,3.9-4.5l2.9-1.5,3-1.4" style="fill: #00ace9"/>
        <path d="M136.1,35.5c4.9,5.1,11.6,6.3,18.8,5.8l5.5-.5a13.8,13.8,0,0,0-1.2,6.1c.2,6.8,5.7,12.3,13.8,16.6s18.8,7.6,29.3,10.6a157,157,0,0,0-24.4-2.7c-8.1-.2-16,0-23.8.3l-15.3.9c-7.3.4-14.4.8-21.6,1s-14.7.2-22.5.8l2,3.5,10.9.7,10.3.2h3.2c6.2-.1,12.4-.4,18.4-.2a65.7,65.7,0,0,1,17.3,2.5,113.1,113.1,0,0,1-25.4,4,97.5,97.5,0,0,1-17.1-.7c-8.5-1.2-16.7-3.2-25.1-5.2s-17.1-3.8-26.5-4.4a27.8,27.8,0,0,0-5.6.4l-1.5.3-.8.2-.9.2-2.7,1.2A21.3,21.3,0,0,0,47,80l-.6.6-.3.3a.6.6,0,0,0,.1.4v.6h0l-.2.2-.5.5c-.2.1-.1.6-1,.1h-.2v.5a14.5,14.5,0,0,0-1.1,2.6c-.5,1.9-1.1,3.8-1.7,5.8l1.5-5.6a22.9,22.9,0,0,1,.7-2.8l.3-.6v-.2h.1s-.1-.1.1,0l.4.2h.3l.5-.6.2-.3h.2v-.9a.4.4,0,0,1-.1-.3v-.4l.3-1a13.4,13.4,0,0,1,.7-1.8l1.2-3.2a22.8,22.8,0,0,0-3.9,2.5l-1.2,1-.2.2c-.1.1,0,.2,0,.3l.2.7c.1.3,0,.2-.1.3h-.4l-.5.3-.2.2h-.3l-1-.5-.2.2-.4.3L38,80.8l-1.3,1.3c-1.8,1.9-3.7,3.8-5.8,5.8L32.8,84l1.6-3.6.8-1.8a14,14,0,0,1,.9-1.7l.2-.4.2-.2h.3l.9.4.2-.2.4-.4.4-.3.2-.2c0-.2-.2-.5-.2-.8l-.2-.4c0-.1-.2-.2,0-.3A37.1,37.1,0,0,1,43,70a32.4,32.4,0,0,1,6-3.3l1.4-.5,1.3-.4a79.9,79.9,0,0,1,17.6-3.6l5.1-.4c1.7-.2,3.3-.3,4.9-.6h0c9.9-1.1,19.3-3.1,28.4-4.4-3.6-.8-7.4-1.5-11.3-2.1-2-1.1-3-2.3-3.3-3.5s.5-2.6,1.9-3.8a18,18,0,0,1,2.5-1.8,31.7,31.7,0,0,1,3.2-1.6,68.8,68.8,0,0,1,13.9-4l1.1.9-3,1.4-2.9,1.5c-1.8,1.2-3.3,2.5-3.9,4.5,7.6-.3,8.1-4.3,12-5.8l2.2,4.8c2.5,1.3,5,2.6,7.7,3.8-1.8,3.2.5,4.4,3.4,5.3s6.2,1.8,5.8,4.6c4.8,1.1,9.9,2.1,15,3.1l7.9-6.5c-6-2.9-12.1-5.7-16.5-9.3s-7.3-7.6-7.3-12.8" style="fill: #04bbef"/>
        <path d="M159.2,46.9c.2,6.8,5.7,12.3,13.8,16.6s18.8,7.6,29.3,10.6c-10.5-3-21.1-6.3-29.3-10.6s-13.6-9.8-13.8-16.6" style="fill: #00a1e5"/>
        <path d="M117.9,42.5c-3.9,1.5-4.4,5.5-12,5.8,7.6-.3,8.1-4.3,12-5.8" style="fill: #00a3e5"/>
        <path d="M21.7,87.5a21.9,21.9,0,0,1,3-1.6l1.5-.4h1.5A3.4,3.4,0,0,1,30,86.6a2.3,2.3,0,0,1,.4,1.4v.4h.1l.4-.5L32.8,84l1.6-3.6.8-1.8a14,14,0,0,1,.9-1.7l.2-.4.2-.2h.3l.9.4.2-.2.4-.4.4-.3.2-.2c0-.2-.2-.5-.2-.8l-.2-.4c0-.1-.2-.2,0-.3A37.1,37.1,0,0,1,43,70a32.4,32.4,0,0,1,6-3.3l1.4-.5,1.3-.4.5-1.1-2.2.5a24.2,24.2,0,0,0-3.3,1.2,32.2,32.2,0,0,0-6.5,4.1l-1,.9a11.4,11.4,0,0,0-1.1,1.1l-.6.5h-.1v.6c.1.4.4,1.1.2,1l-.7.6c-.4.1-.1.7-1.7-.2l-.5.7-1,1.4-1.6,2.9,1.2-3.7a14.2,14.2,0,0,1,.8-1.8v-.2h.2l.5.2.5.3a.1.1,0,0,0,.1-.1l.2-.2a2.7,2.7,0,0,1,.7-.8h.2v-.2l-.3-.8c-.1-.3-.4-.6,0-.8a27.2,27.2,0,0,1,2.4-2.4A39.2,39.2,0,0,1,43,66.2a36.9,36.9,0,0,1,5.1-2.8c.2-.2.4-.2.6-.3l.6-.3,1.2-.5,2.5-1-3.2.4-1.7.3a10.8,10.8,0,0,0-2.4.8A24.9,24.9,0,0,0,41.5,65a31.9,31.9,0,0,0-6.3,4.9l-.4.5-.2.2v.3l.4,1.1v.2h-.3l-.5.4-.3.3H34c-.1.1,0,.2-.4,0l-.7-.4-.3-.2h-.1l-.2.3A17.1,17.1,0,0,0,31,75.4c-.4.8-.7,1.7-1.1,2.5l-2.2,5.2-.5,1.6-.3.7V86h.1a2,2,0,0,0,.3-1.4c-.1-.3-.4-.4-.7-.5a3,3,0,0,0-2.2.8,11.8,11.8,0,0,0-2.5,2.5M32.8,84l1.6-3.6.8-1.8a14,14,0,0,1,.9-1.7l.2-.4.2-.2h.3l.9.4.2-.2.4-.4.4-.3.2-.2c0-.2-.2-.5-.2-.8l-.2-.4c0-.1-.2-.2,0-.3A37.1,37.1,0,0,1,43,70a32.4,32.4,0,0,1,6-3.3l1.4-.5,1.3-.4-1.3.4-1.4.5A32.4,32.4,0,0,0,43,70a37.1,37.1,0,0,0-4.5,4c-.2.1,0,.2,0,.3l.2.4c0,.3.2.6.2.8l-.2.2-.4.3-.4.4-.2.2-.9-.4h-.3l-.2.2-.2.4a14,14,0,0,0-.9,1.7l-.8,1.8L32.8,84" style="fill: #00ace9"/>
        <path d="M32.8,84l1.6-3.6.8-1.8a14,14,0,0,1,.9-1.7l.2-.4.2-.2h.3l.9.4.2-.2.4-.4.4-.3.2-.2c0-.2-.2-.5-.2-.8l-.2-.4c0-.1-.2-.2,0-.3A37.1,37.1,0,0,1,43,70a32.4,32.4,0,0,1,6-3.3l1.4-.5,1.3-.4-1.3.4-1.4.5A32.4,32.4,0,0,0,43,70a37.1,37.1,0,0,0-4.5,4c-.2.1,0,.2,0,.3l.2.4c0,.3.2.6.2.8l-.2.2-.4.3-.4.4-.2.2-.9-.4h-.3l-.2.2-.2.4a14,14,0,0,0-.9,1.7l-.8,1.8L32.8,84" style="fill: #00a1e4"/>
        <path d="M117.4,40.1l.5,2.4-2.2-1.6,1.7-.8" style="fill: #00ace9"/>
        <polyline points="175.6 108.8 176.2 111.6 175.6 108.8" style="fill: #00ace9"/>
        <path d="M111.6,0a17.9,17.9,0,0,1,2.5,2.2,17.4,17.4,0,0,1,1.8,2.2,17.1,17.1,0,0,1,2.2,4.8,28.3,28.3,0,0,1,.9,10.1c-.4,7-2.4,14.2-1.6,20.8l-1.7.8-1.1-.9a68.8,68.8,0,0,0-13.9,4,31.7,31.7,0,0,0-3.2,1.6A18,18,0,0,0,95,47.4c-1.4,1.2-2.1,2.5-1.9,3.8s1.3,2.4,3.3,3.5c3.9.6,7.7,1.3,11.3,2.1-9.1,1.3-18.5,3.3-28.4,4.4-1.6.3-3.2.4-4.9.6l-5.1.4a79.9,79.9,0,0,0-17.6,3.6l.5-1.1a66.7,66.7,0,0,1,8.2-2.2l4-.8,3.9-.5C63.7,60.1,58,60.6,52,62.5l-2.3.7-1.1.4-1.7.8a33.7,33.7,0,0,0-6.2,3.7,39,39,0,0,0-4.4,4.1l.6,1.5-.2.2-.4.4-.3.3v.2h-.2l-.2-.2-.9-.4-.2.2-.2.4a12.2,12.2,0,0,0-.7,1.7l-1.2,3.4,1.2-3.7a14.2,14.2,0,0,1,.8-1.8v-.2h.2l.5.2.5.3a.1.1,0,0,0,.1-.1l.2-.2a2.7,2.7,0,0,1,.7-.8h.2v-.2l-.3-.8c-.1-.3-.4-.6,0-.8a27.2,27.2,0,0,1,2.4-2.4A39.2,39.2,0,0,1,43,66.2a36.9,36.9,0,0,1,5.1-2.8c.2-.2.4-.2.6-.3l.6-.3,1.2-.5,2.5-1-3.2.4-1.7.3a10.8,10.8,0,0,0-2.4.8A24.9,24.9,0,0,0,41.5,65a31.9,31.9,0,0,0-6.3,4.9l-.4.5-.2.2v.3l.4,1.1v.2h-.3l-.5.4-.3.3H34c-.1.1,0,.2-.4,0l-.7-.4-.3-.2h-.1l-.2.3A17.1,17.1,0,0,0,31,75.4c-.4.8-.7,1.7-1.1,2.5l-2.2,5.2-1-3.4-5,2.2-.7.2-.3.2h0s-.1,0,.1.1h-.1v-.3a4.3,4.3,0,0,0-.5-1.6,4.5,4.5,0,0,0-2.4-1.7,1.3,1.3,0,0,1,1.2.9,2.3,2.3,0,0,1,.1,1.2.4.4,0,0,0-.1.3h-.1c0-.1.1,0-.1-.1h.1l.4-.5,2.8-3.6,2.8-3.5,1.3-1.8c.5-.5.9-1.1,1.5-1.6a4.1,4.1,0,0,1-.1-1.1c-.7-.9,2.1,1.1,1.5.1a2.9,2.9,0,0,1,.2-.9v-.7h0v-.2l-.2-.4-.4-.9-.2-.4v-.2l.2-.2.5-.7L30.4,63a6.3,6.3,0,0,1,1.1-1.2l1-1.1,3.8-3.6,3-2.4,2.2-1.8a27.6,27.6,0,0,0-4.8,1.2A36,36,0,0,0,29.3,58a28.7,28.7,0,0,0-4.6,3.7l.5,1.4.2.7H23.2c-.2,0-.1.3-1.1-.4L21,63.1c0-.1-.2-.2-.2-.2h-.6l-1,.2-1.8.5a33.1,33.1,0,0,0-3.6,1.4A51.2,51.2,0,0,0,6,69.5L3.9,70.9H3.4c-.1-.1.2.1.1,0h.1a1.7,1.7,0,0,1,.1-.7,2.2,2.2,0,0,0-.2-1.2,1.5,1.5,0,0,0-1.3-1,4.9,4.9,0,0,0-2.2.5,3.2,3.2,0,0,1,2.6-.4.9.9,0,0,1,.6.7,3.4,3.4,0,0,1-.1,1.7v.2H3c-.2-.1,0,0-.1-.1h.2l.4-.3.7-.6,1.3-1.2,2.6-2.2L13.2,62c.8-.7,1.7-1.2,2.6-1.9l.8-.5h.2l.3.2,1.2.8.3.2h.6l.9-.5.4-.2h.3v-.3l-.2-.5-.4-1-.2-.4c-.1-.2-.2-.4,0-.5l.8-.8,1.5-1.4,1.5-1.3,1.4-1.2c1.9-1.4,3.6-2.6,5.1-3.5a55.3,55.3,0,0,1,7.1-3.5l2-.6,1.3-.3,2.6-.4c3.4-.7,6.7-1,10.2-1.5,6.8-.7,13.6-1.1,20.4-1.5.4-1.3.9-2.5,1.3-3.8,2.1.5,3.9,1.2,5.7,1.8a19.2,19.2,0,0,0-6.4-3.9l-4-1.4-4.5-1.1-4.7-1-4.6-.9a43.4,43.4,0,0,1-8.3-2.2,100.3,100.3,0,0,1,21.8,1.3c-.8-2.1-3.8-3.5-7.2-4.7l-5.3-1.5-2.4-.8a10.2,10.2,0,0,1-2.1-.8h1.8l1.7.2,3.1.5,2.8.8L65,24.8a30.9,30.9,0,0,1,4.4,2.4l3.9,2.5,3.8,2.4a23.8,23.8,0,0,0,3.9,2,29.2,29.2,0,0,0,4.2,1.3l2.4.2h4.1a38.5,38.5,0,0,0,7.6-.8,17.3,17.3,0,0,0,5.3-1.8,11.4,11.4,0,0,0,3.3-2.8,10.6,10.6,0,0,0,1.8-3.5c1.4-5.1-.4-11.6-4.8-17.2l1.1.5,1,.5,1.9,1.1a6.1,6.1,0,0,0,2-1,3.8,3.8,0,0,0,1-1.3,4.4,4.4,0,0,0,.2-3c-.4-2.2-1.5-4.5-.5-6.3" style="fill: #5bc5f2;opacity: 0.8"/>
        <path d="M93.1,51.2c.3,1.2,1.3,2.4,3.3,3.5,3.9.6,7.7,1.3,11.3,2.1-3.6-.8-7.4-1.5-11.3-2.1-2-1.1-3-2.3-3.3-3.5" style="fill: #00a9e8"/>
        <path d="M107.7,56.8c-9.1,1.3-18.5,3.3-28.4,4.4,9.9-1.1,19.3-3.1,28.4-4.4" style="fill: #00a9e8"/>
        <path d="M32.3,80.1l1.2-3.7a14.2,14.2,0,0,1,.8-1.8v-.2h.2l.5.2.5.3a.1.1,0,0,0,.1-.1l.2-.2a2.7,2.7,0,0,1,.7-.8h.2v-.2l-.3-.8c-.1-.3-.4-.6,0-.8a27.2,27.2,0,0,1,2.4-2.4A39.2,39.2,0,0,1,43,66.2a36.9,36.9,0,0,1,5.1-2.8c.2-.2.4-.2.6-.3l.6-.3,1.2-.5,2.5-1-2.5,1-1.2.5-.6.3c-.2.1-.4.1-.6.3A36.9,36.9,0,0,0,43,66.2a39.2,39.2,0,0,0-4.2,3.2,27.2,27.2,0,0,0-2.4,2.4c-.4.2-.1.5,0,.8l.3.8v.2h-.2a2.7,2.7,0,0,0-.7.8l-.2.2a.1.1,0,0,1-.1.1l-.5-.3-.5-.2h-.2v.2a14.2,14.2,0,0,0-.8,1.8l-1.2,3.7" style="fill: #00a4e6"/>
        <polyline points="52.2 64.7 51.7 65.8 52.2 64.7" style="fill: #00a4e6"/>
        <path d="M28,104.7c-.3,1-.5,2-.8,3.1l.6,4.3,2.7-3.7-2.7,3.7,2.7,1.8a80.8,80.8,0,0,1,8.7-7c-1.3,1.4-2.6,2.8-3.8,4.3,2.6-1.9,5.4-3.6,8.1-5.2a92.2,92.2,0,0,0-7.6,7.7l1.8.7,3.1-2.3,4-4.8,1.9-2.4a14.5,14.5,0,0,1,2.2-2.1,4.3,4.3,0,0,1,2.9-1,3.8,3.8,0,0,1,2.8,1.2,1.8,1.8,0,0,1,.6,1.4h0v-.3l.2-.6a14.3,14.3,0,0,1,.8-2.2c.1.9.1,1.7.2,2.6v1.3h0c0,.1,0,.2.1.1s.1-.2.1-.3a1.3,1.3,0,0,0-.1-.6c-.2-.7-1-1-1.7-1.2a3.1,3.1,0,0,0-2.3.3c-1.6.7-2.6,2.3-3.6,3.7l-3,4.3a51.5,51.5,0,0,0-5.5,9.4,5.6,5.6,0,0,0,0,1.3v1.1h-.1v.2a58.3,58.3,0,0,1,9.4-11.5,29.6,29.6,0,0,1,2.6-2.4,28.3,28.3,0,0,1,2.8-2,7.8,7.8,0,0,1,3.5-.8,8.1,8.1,0,0,1,3.9,1.2,3.3,3.3,0,0,0-1.7-.4,6.4,6.4,0,0,0-3.7,2.2,39.7,39.7,0,0,1-2.8,3l-6.1,5.8a28.1,28.1,0,0,0-5.2,6.7,15.2,15.2,0,0,0-1.6,4,11.8,11.8,0,0,0-.3,4.6,3.4,3.4,0,0,0,.1,1,36.9,36.9,0,0,1,2.4-4.9,34.6,34.6,0,0,1,3.4-4.4c.1,0,.2-.3.3-.4l.2-.3.5-.5a11.4,11.4,0,0,1,1.1-1.1c.7-.8,1.5-1.4,2.2-2.1a37.2,37.2,0,0,1,4.6-3.1c-1.8,1.5-3.6,3.2-5.3,4.9a21.6,21.6,0,0,0-2.5,2.7h-.3l-.2.3-.6.6-1,1.3a19.7,19.7,0,0,0-4.1,13l.6,1.2a17.3,17.3,0,0,0,5.1,6.9,9.7,9.7,0,0,1,2.7,3,7.2,7.2,0,0,1,.8,4.1c-.3,2.9-1.5,5.7-2.1,8.5l-.2,1v2.1h0v.6l.2.9a9.7,9.7,0,0,0,2.1,4,10.8,10.8,0,0,0,2.4,1.8,10.9,10.9,0,0,0,2.5.9l-2-.9a8,8,0,0,1-2-1.5,9.1,9.1,0,0,1-2-3.5c-.1-.3-.1-.6-.2-.8v-2.9l.3-1c.7-2.5,2.1-5,3.2-7.7-1.1,2.7-2.5,5.2-3.2,7.7l-.3,1v2.9c.1.2.1.5.2.8a9.1,9.1,0,0,0,2,3.5,8,8,0,0,0,2,1.5l2,.9,2.3.5,1.7.4,3.3.7,6.5,1.5,12.9,3.1c8.5,2.2,16.9,4.5,25.5,7.1l-13.3-8.3c4.4-1.8,9.1-2.2,13.7-2.4l6.8-.2,3.4-.2,3.3-.4-5.1-1.3c-1.6-.5-3.1-.9-4.6-1.5l-8.9-3a121.7,121.7,0,0,0-17.9-5,121.7,121.7,0,0,1,17.9,5l8.9,3c1.5.6,3,1,4.6,1.5l5.1,1.3,2.6-.5a151.6,151.6,0,0,0-17.5-7.9c-5.9-2.3-11.9-4.3-17-7,7.4,1.6,13.4,5.4,22,6.2l-2.4-1.7-3.7-.6,3.7.6a49.5,49.5,0,0,1,5.8,1.2,46.1,46.1,0,0,1,5.3,1.5c3.4,1,6.8,2.1,10.3,2.8l2-1.8,4.4-4.4,1-1.1,1.2-1.1,2.6-2a30.7,30.7,0,0,1,3.1-1.7l3.4-1.4a27.8,27.8,0,0,1,7-1.2h2.5l2.3.2-2.5-.8-2.7-.7a54,54,0,0,0-5.8-1l2,.5,1.9.5-2-.5-2.1-.4c-1.4-.3-2.8-.4-4.3-.6l-8.2-.6-1-.3-.8-.4-1.7-.7a25.3,25.3,0,0,1-3.3-1.6l-3.3-1.9h3l3.5-.4,1.7-.2,2.6-.4-2.4-.9a2.6,2.6,0,0,1-.9-.5l-.8-.5a18.9,18.9,0,0,1-4.2-.3,15,15,0,0,1-8.5-4.2,39.3,39.3,0,0,0,7.6-1.5,10.4,10.4,0,0,0,1.6-.6l2-3.1a13.7,13.7,0,0,1,2.1-1.9,22.6,22.6,0,0,1,2.8-1.9c-1.1-2.1-2.2-4.2-3.4-6.2l-3.3-1.2-.7-.3-.4-.3-.8-.7a16.2,16.2,0,0,0-2.8-2,10.4,10.4,0,0,0-5.6-1.9h-.8v6a8,8,0,0,0-.7-2l-1.2-2.1-2.8,2.1-2.9,2.1-5.6-1.1c-3.2,3.5-7.3,4.3-11.6,4.1s-9-1.4-13.3-2l3.6,2.1a8.1,8.1,0,0,1-7,3.1c-3.7-.2-7.6-2.2-10.9-3.1l-3.7-2-1.8-1-.9-.5h-.3l-.3,7-.7,13.4-.3,6.2-.2,3.4-.2,2.3c-.2,2.1-.2,3.1-.4,4.1s-.1.8-.1,1.2v.8c-.2,1.1-.4,1.7-.5,2.1l-.2.5h0l.7-.7a5.4,5.4,0,0,1,1.7-.9h.1l36.3-14.6h.1v.2l.2.3.5.7.9,1.3.9,1.4.4.6v-.3c-.2-2.8-.2-5.5-.3-8a63,63,0,0,0,1-8.6,30.7,30.7,0,0,0,.5-5.3,30.7,30.7,0,0,1-.5,5.3,35,35,0,0,1-.2,5.6c.6-1.7,1.1-3.4,1.6-5.2,0,3.2-.3,6.3-.6,9.5.5-3.3,1-6.4,1.2-9.7,0-1.6,0-3.3-.1-5a38.6,38.6,0,0,0-.9-4.9,48.7,48.7,0,0,0-2.4-5.7l1.4,1.3c-.6-2.6-1.3-5.4-2.2-8.4a45.4,45.4,0,0,0-2.1-4.5l-.2-.6-.2-.3h-.1l.2,1.7v1.4h0L59.4,132.8h0l.3-.2a8.4,8.4,0,0,1,2.4-.7h1.4l4.5.8h.4l-4.9-.9h-.9l-1.6.2,2.3-.3h.2l4.8.9,1,.2,1.2.2,1.2.4-1-.3,1.5.4,1.9.6,31.6,10v-.7c.1-.2.1-.4.1-.3h.2l.3-.2.9-.5a8.3,8.3,0,0,0,1.7-1.2h.1c0-.4-.1-.8-.1-1.2s.2-.7.3-.6a3.2,3.2,0,0,0,.1.7,6.9,6.9,0,0,0,.5,1.3l3.2,1.6a2.5,2.5,0,0,0-.1-.8v-.4H113a.1.1,0,0,1-.1-.1l-.3-.6a3.6,3.6,0,0,1-.2-1c0-.2,0-.4.4-.5l-.7-.3a.6.6,0,0,1,.1-.4l-.5.6-.2.2h-.1L62,95.3h.1l.4.4,1,1.2c.4.5.7,1.1,1.3,2l.4.7.5.8,1.2,2.2.7,1.4.9,1.7,1.2,2.4,1.6,3.1,5.6,11.4,6.2,13.1h0l.6,1.1.9,2.2,1,2.7c.1.4.3.8.4,1.3l.2.6.3.9c.4,1.2.7,2.3,1,3.5l.5,1.7v1l.3,1.1.2.6h0v-1.1l.2-.7a.8.8,0,0,1,.1-.4l.2-.3-.4-.7-.3-.7c-.2-.4-.5-.8-.7-1.3s.5.9.7,1.3l.3.7.4.7c.9-1.8,3-3.8,5.7-5.8s6-4,9.5-6.1,7.3-4.4,11.1-6.8l2.8-1.8,2.8-2c1.8-1.3,3.6-2.6,5.2-4l-7.4,1.9-7,1.9a55.3,55.3,0,0,0-11.4,4.5L89,136.3l-.5.2-.5.2-.9.4-.7.4-.7.3-.5.2-.4.2c-.1.2-.4.2-.4.3h-.2l-.3-.9v.6h0l-.2-.4c0-.3-.1-.5-.1-.8a4.3,4.3,0,0,1-.1-1.6,8.1,8.1,0,0,1,1-3.6h-.2a24.1,24.1,0,0,1,.8-2.5l-.6,2.5c1.9-.4,4.4-1.2,7.5-2.2l10.3-3.2a97.3,97.3,0,0,1,12.6-3,98.7,98.7,0,0,1,14.6-1.8l-3.4,2.1c11.9-2.7,22.5-6,32.4-9l10.6-10.9-9.4-.4,5.2-2.3c.8-.7,3.8-1.9,4-2.9s-.7-1.2-4.2-1.5-9.4-.3-19.6.4l-10.6,1.4c11.9-3.8,21.9-8.2,30.3-14.6l-8.2-2.7a113.1,113.1,0,0,1-25.4,4,97.5,97.5,0,0,1-17.1-.7c-8.5-1.2-16.7-3.2-25.1-5.2s-17.1-3.8-26.5-4.4a27.8,27.8,0,0,0-5.6.4l-1.5.3-.8.2-.9.2-2.7,1.2A21.3,21.3,0,0,0,47,80l-.6.6-.3.3a.6.6,0,0,0,.1.4v.6h0l-.2.2-.5.5c-.2.1-.1.6-1,.1h-.2v.5a14.5,14.5,0,0,0-1.1,2.6c-.5,1.9-1.1,3.8-1.7,5.8l-.3,1.4,2.5-3c-.8,1.8-1.6,3.5-2.5,5.2,2.5-1.9,4.8-3.8,7-5.6-1,1.5-2.1,2.9-3.2,4.4l-1.8,2.2-.2.3h0v-.3a2.9,2.9,0,0,0-.2-.9A3.3,3.3,0,0,0,41.4,94a1.6,1.6,0,0,0-.9.3,4.9,4.9,0,0,1,2.7,1,2.7,2.7,0,0,1,.9,1.2,1.7,1.7,0,0,1,.1.7v.2c-.1,0,0,0,0-.1l.2-.2,2.5-3.9-1.2,2.3-.6,1.2-.3.6-.2.3h0v-.3a2.1,2.1,0,0,0-.5-1.5,5.7,5.7,0,0,0-1.3-.8,5,5,0,0,0-3.2-.1,19.1,19.1,0,0,0-.7,2.8,44.5,44.5,0,0,0-5.5,3.3L28,104.7m52.9,62.5c9.1,3.2,17,8.4,28.7,10.5-11.7-2.1-19.6-7.3-28.7-10.5l-3.7-1.4-2.4-.5,2.4.5,3.7,1.4-.7,1.2-9.9-1.7,9.9,1.7.7-1.2M50.3,145.8c1.6,1.5,3,2.6,3.8,4.2a7.8,7.8,0,0,1-.2,5.8c-.7,2.1-1.8,4-2.6,5.9a10.1,10.1,0,0,0-1.3,5.8,10.1,10.1,0,0,1,1.3-5.8c.8-1.9,1.9-3.8,2.6-5.9a7.8,7.8,0,0,0,.2-5.8c-.8-1.6-2.2-2.7-3.8-4.2m-4.8-5.6-.3-.5a18.1,18.1,0,0,1-.7-5.2,18.1,18.1,0,0,0,.7,5.2l.3.5a5.6,5.6,0,0,0,.4,1.2l.4,1.3.5,1.2.6,1.2a22.5,22.5,0,0,0,2.3,3.8l1.2,1.8a11.7,11.7,0,0,1,.5,1.1l.3,1.1a13.1,13.1,0,0,1-.4,5.5,13.1,13.1,0,0,0,.4-5.5l-.3-1.1a11.7,11.7,0,0,0-.5-1.1l-1.2-1.8a22.5,22.5,0,0,1-2.3-3.8l-.6-1.2-.5-1.2-.4-1.3a5.6,5.6,0,0,1-.4-1.2M74,168.9l-3.8,1,3.8-1m43.9-66q8.5-2.1,16.8-4.5-8.2,2.4-16.8,4.5m0,0q8.5-2.1,16.8-4.5-8.2,2.4-16.8,4.5m0,0-2.6.3-2.6.8-2.5.4-2.4.7h-.2l-2.4.3-2.3.8-2.4.4-2.3.8-2.2.8-1.6.5-2.1.9a7.2,7.2,0,0,0-2,.9l-1.9.9-1.3.9c-.6.4-1.3.6-1.8,1l-1.1,1.4c6.2-2,13.5-4.9,21.4-7.8l.9-.3.6-.2,3-1.1.7-.2,2.5-.8,1.5-.5,3.1-1m42,.4h-3.2l-2.3.2-2.4.2-2.4.5-3.1.6-1.5.6-4,1.4h-.1l-2.5.9,2.5-.9-2.5.9,2.5-.9h0l-2.5.9,3.3-1.1,1.7-.4,3.1-.6,1-.2,2.9-.4h1.7l1.7-.4a38.7,38.7,0,0,0,6.1-1.3m-40.4,23.6v1.2l1.2,1.2-1.2-2.4" style="fill: #5bc5f2;opacity: 0.8"/>
        <path d="M117.9,102.9l-10.1,2.2,2.4-.7,2.5-.4,2.6-.8,2.6-.3" style="fill: #5bc5f2"/>
        <path d="M114.8,103.9l-1.5.5-2.5.8-.7.2,4.7-1.5" style="fill: #5bc5f2"/>
        <path d="M107.6,105.2A104.2,104.2,0,0,0,94.1,109a30.5,30.5,0,0,0-9.9,5.8l1.1-1.4c.5-.4,1.2-.6,1.8-1l1.3-.9,1.9-.9a7.2,7.2,0,0,1,2-.9l2.1-.9,1.6-.5,2.2-.8,2.3-.8,2.4-.4,2.3-.8,2.4-.3" style="fill: #5bc5f2"/>
        <polyline points="107.1 106.5 106.5 106.7 105.6 107 107.1 106.5" style="fill: #5bc5f2"/>
        <path d="M58.1,164.8v-1.6l.2-1.7v-2.8c-.2,2.1-.2,3.1-.4,4.1s-.1.8-.1,1.2v.8" style="fill: #00adea"/>
        <path d="M87.8,147.4c.2.5.5.9.7,1.3l.3.7.4.7-.4-.7-.3-.7c-.2-.4-.5-.8-.7-1.3" style="fill: #00a4e6"/>
        <polyline points="153.8 156.9 151.9 156.4 149.9 155.9 151.9 156.4 153.8 156.9" style="fill: #00a4e6"/>
        <path d="M137.9,148.9l-2.6.4-1.7.2-3.5.4h0l3.5-.4,1.7-.2,2.6-.4" style="fill: #00a4e6"/>
        <path d="M121.1,142.5a39.3,39.3,0,0,0,7.6-1.5,10.4,10.4,0,0,0,1.6-.6,10.4,10.4,0,0,1-1.6.6,39.3,39.3,0,0,1-7.6,1.5" style="fill: #00a4e6"/>
        <polyline points="117.9 102.9 115.3 103.2 112.7 104 110.2 104.4 107.8 105.1 110.2 104.4 112.7 104 115.3 103.2 117.9 102.9" style="fill: #00a4e6"/>
        <polyline points="114.8 103.9 113.3 104.4 110.8 105.2 110.1 105.4 110.8 105.2 113.3 104.4 114.8 103.9" style="fill: #00a4e6"/>
        <path d="M107.6,105.2l-2.4.3-2.3.8-2.4.4-2.3.8-2.2.8-1.6.5-2.1.9a7.2,7.2,0,0,0-2,.9l-1.9.9-1.3.9c-.6.4-1.3.6-1.8,1l-1.1,1.4,1.1-1.4c.5-.4,1.2-.6,1.8-1l1.3-.9,1.9-.9a7.2,7.2,0,0,1,2-.9l2.1-.9,1.6-.5,2.2-.8,2.3-.8,2.4-.4,2.3-.8,2.4-.3" style="fill: #00a4e6"/>
        <polyline points="107.1 106.5 106.5 106.7 105.6 107 106.5 106.7 107.1 106.5" style="fill: #00a4e6"/>
        <path d="M134.7,98.4q-8.2,2.4-16.8,4.5,8.5-2.1,16.8-4.5" style="fill: #00a4e6"/>
        <path d="M134.7,98.4q-8.2,2.4-16.8,4.5,8.5-2.1,16.8-4.5" style="fill: #00a4e6"/>
        <path d="M41.4,91.7c.6-2,1.2-3.9,1.7-5.8a14.5,14.5,0,0,1,1.1-2.6v-.5h.2c.9.5.8,0,1-.1l.5-.5.2-.2h0v-.6a.6.6,0,0,1-.1-.4l.3-.3L47,80a21.3,21.3,0,0,1,4.2-2.9l2.7-1.2.9-.2.8-.2,1.5-.3a27.8,27.8,0,0,1,5.6-.4c9.4.6,18.1,2.5,26.5,4.4s16.6,4,25.1,5.2c-8.5-1.2-16.7-3.2-25.1-5.2s-17.1-3.8-26.5-4.4a27.8,27.8,0,0,0-5.6.4l-1.5.3-.8.2-.9.2-2.7,1.2A21.3,21.3,0,0,0,47,80l-.6.6-.3.3a.6.6,0,0,0,.1.4v.6h0l-.2.2-.5.5c-.2.1-.1.6-1,.1h-.2v.5a14.5,14.5,0,0,0-1.1,2.6c-.5,1.9-1.1,3.8-1.7,5.8" style="fill: #00a9e8"/>
        <path d="M156.8,81.1a113.1,113.1,0,0,1-25.4,4,113.1,113.1,0,0,0,25.4-4" style="fill: #00a9e8"/>
        <path d="M152,103.8l2.4-.2a68.1,68.1,0,0,0-9.4,1.9l1.5-.6,3.1-.6,2.4-.5" style="fill: #5bc5f2"/>
        <path d="M153.8,104.6l-1.7.4h-1.7l3.4-.5" style="fill: #5bc5f2"/>
        <path d="M147.5,105.5l-1,.2-3.1.6-1.7.4a49.5,49.5,0,0,1,5.8-1.2" style="fill: #5bc5f2"/>
        <path d="M141,106.9h0" style="fill: #5bc5f2"/>
        <polyline points="174 108.4 172.9 108.8 174 108.4" style="fill: #00ace9"/>
        <path d="M169.3,103.7a79.5,79.5,0,0,1,20.2,4.3c6.2,2,11.8,4.5,16.8,6.5-2.6,1.2-5.1,2.6-7.6,4l1-.6-2.3-.7-3-.5-3.3-.4a91.9,91.9,0,0,1-10.7-1.5l-4.2-3.2v-.4l-.6-2.4a34.3,34.3,0,0,1,3.3-2.4l-4.9,2-1.1.4c-4.7,1.8-9.3,3.8-14.2,5.8l10.6-10.9" style="fill: #00a7e7"/>
        <path d="M194.4,116.7l3,.5,2.3.7-2.3-.7-3-.5-3.3-.4,3.3.4" style="fill: #00a2e5"/>
        <polyline points="199.7 117.9 198.7 118.5 199.7 117.9" style="fill: #00a2e5"/>
        <polyline points="175.6 108.8 176.2 111.2 176.2 111.6 175.6 108.8" style="fill: #00a0e4"/>
        <path d="M169.3,103.7l-10.6,10.9,10.6-10.9" style="fill: #00a2e5"/>
        <path d="M171.2,77.8c9.4-.3,21.5,2.9,30.8,6.8-4.6,3.3-10.3,6.1-16,9.2a159.7,159.7,0,0,0-16.7,9.9l-9.4-.4,5.2-2.3c.8-.7,3.8-1.9,4-2.9s-.7-1.2-4.2-1.5-9.4-.3-19.6.4l-10.6,1.4c11.9-3.8,21.9-8.2,30.3-14.6l-8.2-2.7,4.9-1.5a19.4,19.4,0,0,1,6.8-1.6l2.7-.2" style="fill: #00a7e7"/>
        <path d="M165,83.8c-8.4,6.4-18.4,10.8-30.3,14.6,11.9-3.8,21.9-8.2,30.3-14.6" style="fill: #00a2e5"/>
        <path d="M169.1,98.1c-.2,1-3.2,2.2-4,2.9l-5.2,2.3,5.2-2.3c.8-.7,3.8-1.9,4-2.9" style="fill: #00a2e5"/>
        <path d="M138.8,72.6l15.3-.9c7.8-.3,15.7-.5,23.8-.3a157,157,0,0,1,24.4,2.7c4.8,1.6,9.6,3.1,14.5,4.5l4.9,1.4A67.4,67.4,0,0,1,223,96a24.5,24.5,0,0,1-.4,3.9,5.9,5.9,0,0,1-.5,1.9l-.3.8v.2h0l.5-1,.5-.8.4-.7.8-1.2.6-.9.6-.7.8-.9.4-.3h.1l-.2.2h0l.2-.2h-.1l-.3.2-.3.4-.4.4a18.4,18.4,0,0,0-2.1,2.9l-1.5,2.5-1,1.8-1.3,2.4-1.6,3.2-.4.9-.3.6H217l-.3.2-3.5.6c-2.3.5-4.7,1.2-6.9,1.9-5-2-10.6-4.5-16.8-6.5a79.5,79.5,0,0,0-20.2-4.3A159.7,159.7,0,0,1,186,93.8c5.7-3.1,11.4-5.9,16-9.2-9.3-3.9-21.4-7.1-30.8-6.8h0l-2.7.2a19.4,19.4,0,0,0-6.8,1.6l-4.9,1.5a65.7,65.7,0,0,0-17.3-2.5c-6-.2-12.2.1-18.4.2h-3.2l-10.3-.2-10.9-.7-2-3.5c7.8-.6,15.3-.7,22.5-.8s14.3-.6,21.6-1" style="fill: #00b1eb"/>
        <path d="M138.8,72.6c-7.3.4-14.4.8-21.6,1s-14.7.2-22.5.8c7.8-.6,15.3-.7,22.5-.8s14.3-.6,21.6-1" style="fill: #00a4e6"/>
        <path d="M154.1,71.7c7.8-.3,15.7-.5,23.8-.3a157,157,0,0,1,24.4,2.7,157,157,0,0,0-24.4-2.7c-8.1-.2-16,0-23.8.3" style="fill: #00a4e6"/>
        <path d="M107.6,78.6l10.3.2h3.2c6.2-.1,12.4-.4,18.4-.2-6-.2-12.2.1-18.4.2h-3.2l-10.3-.2" style="fill: #00a4e6"/>
        <path d="M171.2,77.8h0l-2.7.2,2.7-.2" style="fill: #00a1e4"/>
        <path d="M202,84.6c-4.6,3.3-10.3,6.1-16,9.2a159.7,159.7,0,0,0-16.7,9.9A159.7,159.7,0,0,1,186,93.8c5.7-3.1,11.4-5.9,16-9.2" style="fill: #00a1e4"/>
        <path d="M202.3,74.1A105.5,105.5,0,0,1,221.7,80l-4.9-1.4c-4.9-1.4-9.7-2.9-14.5-4.5" style="fill: #00ace9"/>
        <path d="M202.3,74.1A105.5,105.5,0,0,1,221.7,80a105.5,105.5,0,0,0-19.4-5.9" style="fill: #00a0e4"/>
      </g>
    </g>
    <path d="M55.1,66.3c6.2-1.4,12.4-.6,18.5-.7a136.9,136.9,0,0,1,14.3.7,86.9,86.9,0,0,0,14.4-.4,63.8,63.8,0,0,1,9.8.3,163.2,163.2,0,0,0,23.2.1,55.9,55.9,0,0,1,8.2-.1,69.4,69.4,0,0,0,7.9,0c6.1-.3,12.2.6,18.2-.3s11.3-.1,17-.2c9.7-.2,19.3.4,29,.8a5.1,5.1,0,0,1,4.7,3.1,15.2,15.2,0,0,1,1,4.6c.2,4.9.1,9.8.1,14.7a9.3,9.3,0,0,1-2.5,6.8c3.8.3,5.8,1.9,7,5a124,124,0,0,1,4.2,15.9c1.1,5,2,9.9.2,14.8s-2,8-6.5,10.2c-.7.4-.4.9-.4,1.5.1,2.6.1,5.2.1,7.8a4.7,4.7,0,0,1-.4,2.4c-3,4.9-1.2,10.2-2.2,15.2-.1.6,0,1.1-.1,1.6-.5,4.5-2.4,5.5-7.4,4.9a123.4,123.4,0,0,0-17.2-.1c-3.6,0-7.1.3-10.6.1-5.4-.4-10.8.5-16.1.2l-8.9-.5c-3-.3-6-.1-9-.1a147.2,147.2,0,0,1-17.6-.7,20.2,20.2,0,0,0-5,.5c-4.8.7-9.5-.1-14.3-.1s-11,.2-16.6.5a185.4,185.4,0,0,1-31.6-.3c-3.4-.4-6.9.4-10.3.3S53,174,53,172.1a44.4,44.4,0,0,1,.4-8.1c.9-4.7.6-14.4-.7-18.9-.3-1.1-1.1-2.6.3-3s1.2,1.5,1.7,2.3.3.9.5,1.3c1.3,3.9.6,9.7,5.2,9.8a114.6,114.6,0,0,0,16.5-1.3c3-.5,6,.2,9,.3,12.2.3,24.4.9,36.6.5,4.3-.2,8.6-.3,12.8-.8a14.8,14.8,0,0,1,4.2.2c8.5,1.8,17.2.6,25.8.7s16.1-.3,24.1.2c3.3.2,6.4.7,9.6,1s3.8-.4,5.6-.7a34.4,34.4,0,0,1,12.4,0c2.7.4,3.4-1.1,3.9-2.7s.2-5.8.4-8.7c0-.8-.4-1-1.5-.6a32.4,32.4,0,0,1-9.9,1.3c-4.4,0-7.2-2.2-9.3-5.6,2.2,0,1.9-.8,1.1-2.2s-1.1-5.9-2.2-8.6a20.1,20.1,0,0,1-1.5-8.6,1.1,1.1,0,0,0-.3-.7c-1-.8-6.9-.5-7.9.5a4.5,4.5,0,0,1-3.4,1c-5.3-.3-10.4-1.5-15.7-1.6a65.5,65.5,0,0,0-13.3,1.8c-1.6.3-3-.2-4.4-.2-9-.1-18.2-1.7-27-.1-6.2,1-11.6-1.3-17.4-1A69,69,0,0,0,95,121c-3,.7-5.8,1.1-8.9-.3s-7.1-1.3-10.6-.7c-1.9.3-3.4,1.5-3.2,3.5.4,3.6-.5,7-1.6,10.3a9.3,9.3,0,0,1-6.5,6.5c-1.6.5-2.5,1.7-3.8,2.4s-5.3,1-8.1.9c-6.5-.4-10.8-3.1-12.1-7.9-.7-2.5.4-4.8.8-7.2.8-5.5,1.6-11,2-16.5a30,30,0,0,1,2.4-9.8c1-2,1.8-4.3,5.1-4.1.7,0,.9-.3.8-1-1-7.7-.9-15.4-1.4-23.1a23.7,23.7,0,0,1,.6-5.2A3.5,3.5,0,0,1,52,66.7c1-.6,3-.8,1.5-2.7-.2-.3.3-.6.7-.7s.9.2.9.8Zm149.6,59.8c-1.2,1.6-2.8,3.1-2.6,5.1l.7.2c.7-1.7,1.5-3.4,2.2-5s.5-.5,0-.8Zm-46.1-23.8c-.2-.2-.4-.6-.7-.4s-.1.7.3.9a3.6,3.6,0,0,1,.4,1.1c.4.7,1,1.5,0,2.2s-1.3-.7-2.1-.6c-.8,2-1.7,4.1-1.3,6.3a47.5,47.5,0,0,1,.5,5.3c0,1.5.5,2.1,2.5,1.7,4-.8,8.1-1.9,12.4-1.9s8.7,1,13.1,1.4c1.8.1,2.8,0,3-2,.2-4.8,0-9.5-.1-14.3h-.4a16.9,16.9,0,0,1-2.8,3.8c-.6.5-1.2,1.7-2.2,1s0-1.7.6-2.3a40.1,40.1,0,0,0,3.9-5.3c-1.4-.2-1.5,1-2.3,1.3s-1.9,1.6-2.7.6,1.2-.8,1.5-1.5a.7.7,0,0,0,.1-.5c-4.1.6-8-1.6-12.1-.8-2.5.4-4.9,1.6-7.6.8a10.8,10.8,0,0,0-5.7-.2l7.4,4.4c.4.3,1.1.6.7,1.3s-1,.6-1.7.2Zm48,31.4a17.7,17.7,0,0,1,1.2-1.7c.4-.4.6-1.4,1.4-1s.2,1.1-.1,1.7l-2.7,5.4c-.5.9,0,1.5.9,1.8s.9-.6,1.2-1.1a11.1,11.1,0,0,1,.9-1.9c.2-.5.6-.8,1.1-.6s.2.7.1,1.1-1.5,2.4-1.3,4c1-.6.7-2.1,1.9-1.8s.2,1.2,0,1.9,0,.7.5.7.9-.6.8-1.1-.1-1.3,1.2-1.2,1.5.2,1.3,1.1.9,1.5,1.9,1.2c3.7-1.1,7.3-2.4,9-5.6a43.6,43.6,0,0,0,2.3-6c.8-2.2-.3-4.7.1-6.5s-.1-5.2-.7-7.7a86.4,86.4,0,0,0-4.1-15.7c-1-2.6-3.2-3.7-5.8-2.7a9.7,9.7,0,0,0-.1-1.7c-1.8,1.1-3.8,1.5-5.5,2.6-4,2.6-6.3,6.2-8.3,10l-.5.6c.5.2.8.1,1-.3s.8-.7,1.3-.4.3.8,0,1.2l-2.1,3.1c-.5.6-1.2,1.1-.7,1.9s.8-.9,1.2-1.4.8-1.9,2-1.2-.1,1.5-.5,2.2a39,39,0,0,1-2.5,3.6c-.7.8-1.6,1.5-1.2,2.9l1.7-2.4c1.1-.7,2.2-2.6,3-2s-1,2.1-1.6,3.1-3.9,4.3-3.2,7.6c1.6-2,2.3-4.2,4.2-5.9.3-.2.7-.6,1.1-.4s.4.8.1,1.2-1.7,1.7-1.9,3c1.8-.4,2.5-.1,1.3,1.5a3.5,3.5,0,0,0-.3,1.1.6.6,0,0,0-.3.9l.7-.5c1.4-.5,1.5,0,1.1,1l-1.6,4c-.4.5-.7,1,0,1.5ZM115.3,94.3c.3.3.6.9,1.1.5s-.4-.7-.7-1-.6-1-.8-1.6-1.4-1.1-.1-1.6,1.3.3,1.8.8l2.6,3.4a64.2,64.2,0,0,1,1-14.1,9.5,9.5,0,0,0-.3-4.4,1.6,1.6,0,0,1,1.5-2c1.4,0,.9,1.1.9,1.8,0,5.3,0,10.5.1,15.8,0,.8-.8,1.6.3,2.4a11.1,11.1,0,0,1,2.6-2.7c.6-.3,1.2-.7,1.6-.2s0,.9-.3,1.2l-3,3.6c3.2-.7,5.8.2,8.4.5s5.7-1.1,8.6,0a.9.9,0,0,0,1.1-.4,4.8,4.8,0,0,1,3.9-.7,31.8,31.8,0,0,0,4.7.3l-4-3.1c-.3-.3-.8-.4-.5-.9a1.2,1.2,0,0,1,1.4-.3l1.3.7c1.3.4,2.1,2.3,3.4,1.5s1-2.8,1-4.3-.1-.3-.1-.4c-.6-4.6.4-9.1.2-13.7a1.4,1.4,0,0,1,1.3-1.5c1.1.1.8.9.7,1.6s-.6,3.5-.8,5.2-.4,1.8.1,2.3c2.2,2.6,1.2,5.5,1,8.3-.1,1-.8,2.1.6,3l3-4.3c.3-.4.7-.8,1.3-.5s.4.8.2,1.2-1.2,2.5-1.9,4.1l2.1-.9c.7-.3,1.6-.6,2,.2s-.7.9-1.2,1.3-1.2.2-1.3.9c3,.1,5.9,1.6,9.1.1a8,8,0,0,1,5.1-.4c3.2.8,6.2-.1,9.5-.5A16.7,16.7,0,0,0,181,93a1.3,1.3,0,0,1-.3-1.7c.5-.8,1.2-.1,1.7-.1s1.7,1.6,3.3,1.9c-.2-4.3,1-8.5.4-12.7a25.7,25.7,0,0,1-.1-4.8c-.1-1.1.5-1.8,1.6-1.7a1.3,1.3,0,0,1,.9,1.9c-.6,1.5-.1,3-.1,4.5s.9,5.5.5,8.4-.6,3.6.8,5.4c1.1-1.8,1.5-3.8,3.1-5.1s.6-.6,1.1-.4a.7.7,0,0,1,.4,1.1l-1.5,3.2v.6l.6-.3,1.6-.7c.8-.2,1.6-1.4,2.3-.1s-.6,1.4-1.3,1.9l-4,1.9c2,.1,3.5-.1,4.9.3a27.5,27.5,0,0,0,7,.5c2.3-.1,4.6-.6,7-.6a8.3,8.3,0,0,0,8-6.1c.7-3.6-.1-7-.1-10.5s.3-5.7-.5-8.5-1.5-2.7-3.8-2.6h-4.9c-4.3-.6-8.6-1.2-12.9-.5a16.2,16.2,0,0,1-4.4,0c-6.8-.9-13.5-.1-20.3-.3-2.7,0-5.4.5-8.2.5-7.7,0-15.3-.2-23,0-1.8.1-3.6-.3-5.3,0a82.2,82.2,0,0,1-9.8.7c-4.7.2-9.3-.5-13.9-.7a102.9,102.9,0,0,0-15.7,0,34.7,34.7,0,0,1-9.1.1,79.1,79.1,0,0,0-9.7-.7l-13.6-.3a42.5,42.5,0,0,0-8,.5c-1.4.3-2.9.8-3.2,2.3a27.5,27.5,0,0,0-.2,5c.3,6.1,1,12.2.9,18.2a3.9,3.9,0,0,0,2.5,4.1c4.2,1.8,7.3,4.5,10.4,7.6a26.9,26.9,0,0,1,7.2,11.9c.2.7.5.9,1.2.7a31.8,31.8,0,0,1,11.5.3c-.6-5.7.9-11.2-.5-16.7-.6,1-.8,2-1.4,3s-.2,2.3-1.6,1.9-.4-1.7-.2-2.6a12,12,0,0,1,1.3-2.5c-1.4.1-1.9,1-2.8,1.3a1.4,1.4,0,0,1-1.5,0c-.5-.6.2-.9.5-1.1s2.1-1.4,3.3-2.3c-3.6-.4-6.8.2-10.2-1.2s-7.4-.9-11.2-.3c-1,.1-2.3.2-2.4-1.1s1.1-1.1,2.1-1.2c4.5,0,9-.4,13.4.9a12.7,12.7,0,0,0,5.8-.1l-.8-.8c-.4-.8-2.4-1.2-1.2-2.3s1.9.4,2.7,1,1.5,2.1,3.5,1.7a24.3,24.3,0,0,1-1.4-2c-.5-.8-1.4-1.8-.3-2.4s.9,1.1,1.7,1.5l.7.2A93.7,93.7,0,0,1,86,75.4c.1-.8-.3-1.8.8-1.8s1.2,1.1,1.1,1.8c-.2,4.8.4,9.6.7,14.4.1,1.3-.4,2.6.1,4.1a21.8,21.8,0,0,1,4-4.5c.3-.3.7-.6,1.1-.3s.1.7-.1,1.1-2,1.6-1.9,3,2-1.4,2.6-.5-1.4,1.5-1.7,2.8c6.9-.2,13.7,1.8,20.7.3-.6-1.2-1.8-1.3-2.6-1.8s-1.2-.5-.9-1.2a1.5,1.5,0,0,1,1.8-.4A13.7,13.7,0,0,1,115.3,94.3ZM56.4,172.6c5.5,0,11.1-.1,16.7.2a187.2,187.2,0,0,0,27-.3,119.1,119.1,0,0,1,15.8-.4c4.5.1,9,1.1,13.5-.1a15.5,15.5,0,0,1,7.7.2,21.9,21.9,0,0,0,3.6.3c7.3.2,14.7-.7,22,0a50.2,50.2,0,0,0,6.7.4c9.5-.3,18.9.1,28.3-.3a101.2,101.2,0,0,1,17.4.4c2.1.3,3.1-.6,3.2-2.4.2-3.4.8-6.8.4-10.3-.8-.3-1.3,1.3-2.1.4s.3-1.3.7-1.8.4-1.2-.7-1.3a43.5,43.5,0,0,0-7.2-.4c-4.1.2-8,1.6-12.1,1a43.3,43.3,0,0,0-5-.8c-9-.1-18,.1-26.9-.1-4.9-.2-9.7,1-14.5.3-9.6-1.3-19.2-.9-28.9-.5s-21.3,0-31.9-.3c-4.1-.1-8.1-.6-12.2-.4-6.7.4-13.3,1.9-20,.9-1.3-.2-2,0-1.8,1.3s.4,5.4,1,8.1S57.9,170.7,56.4,172.6ZM69.5,125c.3-2.8.3-2.8-2.5-6.5-.6-.8-1.5-1.7-.2-2.3s.7,1.1,1.4,1.4h.4a3,3,0,0,0-.8-2.8,9,9,0,0,1-2.9-4.8c-.9-4.7-4.5-7.3-8.9-9.4-2.1-1-4.4-1.2-6.1.5a12.5,12.5,0,0,0-3,4.7,61.5,61.5,0,0,0-2.3,13.5c-.4,3.6-.4,7.2-1.9,10.7-2.1,5.4.9,9.5,7.2,10.8a41,41,0,0,0,4.9.6,8.7,8.7,0,0,0,6.8-2.5c1.8-1.8-1.3-1.7-1.4-2.8s-.2-1.3.3-1.6,1,0,1.5.4a7.7,7.7,0,0,0,3.7,2c-.2-1.1-.1-2.2-1.5-2.4s-1.1.8-1.2-.2-.5-2.2.6-3a1.4,1.4,0,0,1,2,.5c.7,1,1.2,2.2,1.8,3.2,1.2-2.1.3-5.1-2-7-.4-.4-1.5-.6-.7-1.3s1.2-.3,1.9.1a7,7,0,0,1,2,2.2,1.1,1.1,0,0,0,.2-1.7l-2.4-4c-.4-.7-.7-1.4.2-1.8s.9.6,1.1,1Zm78.9-26.4H125.8l2.7,2.7c.6.5,1,1.1.2,1.7s-1.3,0-1.8-.4L123.3,99a1.8,1.8,0,0,0-1.7-.4c-.5.3,0,.9,0,1.3.3,3.4.9,6.7.4,10.2s-1.1,5.8-.6,8.7c5.3-.9,10.7-.8,16.1-.8s9.4.6,14.2.4c1.6,0,2-.3,1.8-1.8s-.3-5.3-.7-7.9,0-4.6-.3-6.9c-.8,1-1.4,2-2.1,2.9a1.4,1.4,0,0,1-2.1.7c-.9-.5,0-1.1.2-1.6l1.9-2.7c.4-.6,1.2-1.2.3-2.1l-2.5,1.6c-.4.2-.9.5-1.3,0s.1-.7.3-1Zm-30,4-3.5,4.5a1,1,0,0,1-1.5.5c-.6-.3-.2-.7-.1-1.2a8.9,8.9,0,0,1,2.1-3.3,30.4,30.4,0,0,1,2.8-3.3c.5-.7.6-1.4-.5-1.2-3.4.3-6.5-1.3-9.8-.9-4.9.7-9.9.2-14.8.2a3.4,3.4,0,0,0-2.6.6c.4.9,1.3,1,2.1,1.4,2.3.9,4.1,2.5,6,3.9s1.3,1.2.5,1.9-1.1-.3-1.6-.6l-6.4-4.3a1.3,1.3,0,0,0-1.8-.1l4.6,6.5c.4.5.7,1.2.1,1.6s-1.1-.4-1.5-.8-1.8-3.2-3.3-4.5c-.8,1.6.9,3.1.1,4.5-1.7,3.3-1.3,6.6-.8,10,.2,1.2.9,1.9,2.8,1.4,6.5-1.4,13.1-2.5,19.9-1.9,2.2.2,4.3.3,6.4.6s1.3.1,1.5-.7C120.4,112.5,119.2,107.6,118.4,102.6Zm71.4-3.8,2.5,2a17.5,17.5,0,0,1,3.2,3.5,1.2,1.2,0,0,1-.4,2c-.8.3-1-.3-1.4-.9s-1.5-2.4-2.9-3.1c-.6,1,1,2.2-.4,3s-.5-1-1.2-.9v12.7a10.5,10.5,0,0,1,5.8-.3c3.6.6,3.7.6,4.5-2.5a30.8,30.8,0,0,1,8.9-15.7C202.3,99.1,196.4,98.9,189.8,98.8ZM91.3,93.9h.3l-.2-.2-.3.2Z" style="fill: #414142"/>
  </g>
</svg>
